<svg width="120" height="120" viewBox="0 0 120 120" fill="none" xmlns="http://www.w3.org/2000/svg">
<path d="M118.721 69.59C118.739 84.2185 113.281 98.3241 103.421 109.13H16.5805C10.1581 102.076 5.55104 93.563 3.15799 84.3282C0.76494 75.0933 0.657934 65.4145 2.84623 56.129C5.03453 46.8435 9.45223 38.231 15.7171 31.0365C21.9821 23.8421 29.9055 18.2824 38.802 14.8384C47.6986 11.3944 57.3002 10.1699 66.7764 11.2707C76.2525 12.3715 85.3178 15.7646 93.1879 21.1563C101.058 26.5481 107.496 33.7761 111.945 42.2152C116.393 50.6542 118.719 60.0501 118.721 69.59Z" fill="#F1F2EE"/>
<path d="M65.4606 62.6004H5.40063C5.53433 61.2619 5.99525 59.9768 6.74278 58.8585C7.49031 57.7402 8.50148 56.8229 9.68715 56.1876C10.8728 55.5523 12.1966 55.2184 13.5417 55.2154C14.8869 55.2124 16.2121 55.5403 17.4006 56.1704C18.3093 54.0128 19.8234 52.1645 21.7599 50.8489C23.6965 49.5334 25.9726 48.8068 28.3132 48.7571C30.6538 48.7074 32.9587 49.3367 34.9494 50.5688C36.94 51.801 38.5312 53.5833 39.5306 55.7004C40.5049 55.2232 41.5419 54.8865 42.6106 54.7004C45.113 54.2533 47.6929 54.6355 49.9582 55.7889C52.2234 56.9423 54.0502 58.8038 55.1606 61.0904C56.7533 60.0137 58.6919 59.5736 60.5934 59.8568C62.4949 60.1401 64.2209 61.1262 65.4306 62.6204L65.4606 62.6004Z" fill="white"/>
<path d="M114.871 82.4301H54.8109C54.9446 81.0916 55.4055 79.8065 56.1531 78.6882C56.9006 77.5698 57.9118 76.6526 59.0974 76.0173C60.2831 75.3819 61.6069 75.0481 62.952 75.0451C64.2972 75.0421 65.6224 75.37 66.8109 76.0001C67.7113 73.8253 69.2254 71.9598 71.1684 70.6314C73.1114 69.3029 75.3992 68.5689 77.7524 68.5191C80.1057 68.4692 82.4225 69.1057 84.42 70.3507C86.4175 71.5957 88.0093 73.3954 89.0009 75.5301C89.9752 75.0529 91.0122 74.7162 92.0809 74.5301C94.5835 74.0796 97.1648 74.4603 99.4308 75.6141C101.697 76.7678 103.523 78.6313 104.631 80.9201C106.225 79.8428 108.165 79.4023 110.069 79.6855C111.972 79.9688 113.699 80.9552 114.911 82.4501L114.871 82.4301Z" fill="white"/>
<path d="M35.4299 42.8499H14.7799C14.8532 42.1062 15.2188 41.4219 15.7963 40.9475C16.3739 40.4732 17.1161 40.2474 17.8599 40.3199C18.227 40.3593 18.5833 40.4678 18.9099 40.6399C19.221 39.8958 19.7416 39.2582 20.4085 38.8047C21.0754 38.3511 21.8597 38.1012 22.666 38.0853C23.4724 38.0694 24.2659 38.2882 24.9502 38.7151C25.6344 39.1421 26.1798 39.7587 26.5199 40.4899C26.8533 40.3199 27.2108 40.2019 27.5799 40.1399C28.4415 39.9832 29.3308 40.1135 30.1112 40.5109C30.8916 40.9083 31.52 41.5509 31.8999 42.3399C32.4452 41.9647 33.1123 41.8097 33.7671 41.9062C34.422 42.0026 35.016 42.3434 35.4299 42.8599V42.8499Z" fill="white"/>
<path d="M116.301 63.3198H95.6407C95.7103 62.6232 96.0364 61.9773 96.5558 61.5078C97.0752 61.0384 97.7506 60.7789 98.4507 60.7798C98.9151 60.7736 99.3732 60.8873 99.7807 61.1098C100.094 60.3687 100.615 59.7341 101.281 59.2825C101.947 58.8309 102.729 58.5816 103.534 58.5646C104.338 58.5477 105.131 58.7639 105.815 59.1871C106.499 59.6104 107.047 60.2225 107.391 60.9498C107.726 60.7859 108.083 60.6714 108.451 60.6098C109.311 60.4554 110.198 60.5869 110.976 60.9842C111.754 61.3815 112.381 62.0227 112.761 62.8098C113.308 62.434 113.976 62.2787 114.633 62.3751C115.289 62.4715 115.885 62.8126 116.301 63.3299V63.3198Z" fill="white"/>
<path d="M53.6901 98.4301H19.0001C19.1144 97.2577 19.6611 96.1699 20.5337 95.3787C21.4063 94.5875 22.5422 94.1495 23.7201 94.1501C24.5022 94.1441 25.2729 94.3368 25.9601 94.7101C26.4839 93.4615 27.3585 92.3917 28.478 91.6302C29.5975 90.8686 30.9138 90.4481 32.2674 90.4195C33.621 90.391 34.9539 90.7556 36.1045 91.4692C37.2552 92.1828 38.1741 93.2147 38.7501 94.4401C39.3143 94.1665 39.9131 93.9714 40.5301 93.8601C41.9767 93.6022 43.4679 93.8241 44.7767 94.4921C46.0855 95.16 47.1402 96.2373 47.7801 97.56C48.6991 96.9318 49.8213 96.6734 50.9225 96.8365C52.0237 96.9996 53.0228 97.5723 53.7201 98.4401L53.6901 98.4301Z" fill="white"/>
<path d="M111.86 80.3802C112.326 80.3005 112.805 80.3324 113.257 80.4732C113.709 80.614 114.121 80.8597 114.46 81.1902C115.37 81.9202 116.08 81.4202 117.6 81.5302C117.61 81.4807 117.61 81.4297 117.6 81.3802C116.4 80.9702 116.15 81.3802 115.02 80.7502C114.594 80.3998 114.084 80.1666 113.54 80.0737C112.996 79.9807 112.438 80.0312 111.92 80.2202C111.891 80.2699 111.871 80.3239 111.86 80.3802Z" fill="#20100D"/>
<path d="M114.001 82.9999C112.271 82.4699 111.641 81.2999 111.791 80.5099C111.786 80.4633 111.786 80.4164 111.791 80.3699C111.111 81.9399 112.441 83.3699 113.791 83.6899C114.479 83.9127 115.226 83.8701 115.885 83.5704C116.543 83.2706 117.066 82.7354 117.351 82.0699C117.051 82.8499 115.761 83.5199 114.001 82.9999Z" fill="#3F4730"/>
<path d="M111.831 80.5199C111.681 81.31 112.311 82.52 114.041 83.01C114.633 83.2638 115.292 83.3101 115.913 83.1412C116.534 82.9724 117.08 82.5983 117.461 82.08C117.552 81.9107 117.6 81.7219 117.601 81.53C116.081 81.42 115.381 81.92 114.461 81.19C114.122 80.8594 113.71 80.6137 113.258 80.4729C112.806 80.3322 112.328 80.3003 111.861 80.3799C111.845 80.4252 111.835 80.4722 111.831 80.5199Z" fill="#697550"/>
<path d="M111.92 80.2203C112.438 80.0313 112.996 79.9808 113.54 80.0738C114.084 80.1667 114.594 80.3999 115.02 80.7503C116.15 81.4103 116.4 80.9703 117.6 81.3803C117.513 80.9527 117.322 80.5533 117.042 80.2181C116.763 79.8829 116.405 79.6225 116 79.4603C114.74 78.7803 112.46 78.8403 111.92 80.2203Z" fill="#697550"/>
<path d="M117.591 81.38C117.598 81.7282 117.469 82.0654 117.231 82.32C116.993 82.5681 116.703 82.7595 116.381 82.88C115.74 83.1151 115.041 83.1465 114.381 82.97C113.701 82.8399 113.069 82.529 112.551 82.07C112.29 81.8477 112.09 81.5618 111.971 81.24C111.905 81.0812 111.868 80.9119 111.861 80.74C111.858 80.5699 111.885 80.4005 111.941 80.24C111.869 80.404 111.832 80.581 111.831 80.76C111.832 80.9371 111.862 81.1129 111.921 81.28C112.045 81.6138 112.243 81.9148 112.501 82.16C113.017 82.658 113.661 83.0041 114.361 83.16C115.054 83.3361 115.783 83.2942 116.451 83.04C116.778 82.9001 117.071 82.6922 117.311 82.43C117.42 82.2942 117.508 82.1424 117.571 81.98C117.629 81.8097 117.653 81.6295 117.641 81.45L117.591 81.38Z" fill="#525C3E"/>
<path d="M115 83.9C114.549 83.9664 114.088 83.9288 113.653 83.7902C113.218 83.6516 112.82 83.4155 112.49 83.0999C112.056 82.7674 111.751 82.2944 111.627 81.7618C111.503 81.2292 111.568 80.6701 111.81 80.18C111.829 80.1616 111.854 80.1514 111.88 80.1514C111.906 80.1514 111.931 80.1616 111.95 80.18C111.969 80.2003 111.98 80.2271 111.98 80.255C111.98 80.2828 111.969 80.3096 111.95 80.33C111.724 80.7797 111.665 81.2953 111.784 81.7845C111.903 82.2737 112.192 82.7046 112.6 83C113.2 83.4998 113.961 83.7659 114.742 83.7494C115.523 83.7328 116.272 83.4347 116.85 82.91C116.871 82.891 116.897 82.8804 116.925 82.8804C116.953 82.8804 116.98 82.891 117 82.91C117.011 82.9193 117.019 82.9309 117.025 82.9438C117.031 82.9567 117.034 82.9708 117.034 82.985C117.034 82.9991 117.031 83.0132 117.025 83.0261C117.019 83.039 117.011 83.0506 117 83.0599C116.424 83.5188 115.732 83.8095 115 83.9Z" fill="#010202"/>
<path d="M114.371 83.0799C113.923 83.0503 113.488 82.9252 113.093 82.713C112.698 82.5009 112.353 82.2066 112.081 81.8499C112.062 81.8296 112.051 81.8028 112.051 81.7749C112.051 81.7471 112.062 81.7203 112.081 81.6999C112.101 81.681 112.128 81.6704 112.156 81.6704C112.184 81.6704 112.21 81.681 112.231 81.6999C112.485 82.0269 112.805 82.2966 113.17 82.4914C113.535 82.6861 113.938 82.8015 114.351 82.8299C114.365 82.8311 114.379 82.8352 114.391 82.842C114.404 82.8489 114.414 82.8583 114.423 82.8696C114.431 82.881 114.437 82.894 114.44 82.9079C114.444 82.9217 114.444 82.936 114.441 82.9499C114.447 82.9764 114.444 83.0044 114.431 83.0284C114.418 83.0525 114.397 83.0708 114.371 83.0799Z" fill="#010202"/>
<path d="M4.12012 66.4998C4.56883 66.4205 5.03002 66.45 5.46501 66.5857C5.9 66.7214 6.29611 66.9594 6.62012 67.2798C7.51012 67.9798 8.19012 67.4998 9.62012 67.5998V67.4598C8.47012 67.0698 8.23012 67.4598 7.14012 66.8598C6.73098 66.515 6.23707 66.2859 5.70958 66.1962C5.18209 66.1066 4.64021 66.1596 4.14012 66.3498L4.12012 66.4998Z" fill="#20100D"/>
<path d="M6.22125 69.0002C4.56125 68.5002 3.95125 67.3702 4.09125 66.6002C4.08768 66.557 4.08768 66.5135 4.09125 66.4702C3.45125 67.9902 4.73125 69.3402 6.09125 69.6702C6.75319 69.8831 7.47077 69.8412 8.1034 69.5526C8.73602 69.264 9.2381 68.7497 9.51125 68.1102C9.14396 68.6083 8.61887 68.9674 8.02147 69.129C7.42407 69.2906 6.78956 69.2452 6.22125 69.0002Z" fill="#3F4730"/>
<path d="M4.0909 66.6296C3.9509 67.3996 4.5609 68.5296 6.2209 69.0296C6.7892 69.2746 7.42372 69.32 8.02111 69.1584C8.61851 68.9968 9.14361 68.6377 9.5109 68.1396C9.60156 67.974 9.64967 67.7884 9.6509 67.5996C8.1909 67.4996 7.5109 67.9896 6.6509 67.2796C6.32785 66.9578 5.93183 66.7188 5.49655 66.583C5.06127 66.4472 4.59962 66.4186 4.1509 66.4996L4.0909 66.6296Z" fill="#697550"/>
<path d="M4.18018 66.3502C4.68027 66.1599 5.22215 66.1069 5.74964 66.1966C6.27713 66.2862 6.77104 66.5154 7.18018 66.8602C8.27018 67.4902 8.51018 67.0702 9.66018 67.4602C9.57792 67.0535 9.39728 66.6731 9.13405 66.3524C8.87082 66.0316 8.53302 65.7802 8.15018 65.6202C6.89018 65.0002 4.70018 65.0002 4.18018 66.3502Z" fill="#697550"/>
<path d="M9.6402 67.4603C9.64371 67.6305 9.61661 67.7998 9.5602 67.9603C9.49155 68.1099 9.40051 68.2482 9.2902 68.3704C9.06348 68.6081 8.78683 68.7925 8.4802 68.9104C7.85379 69.1345 7.1746 69.1658 6.5302 69.0003C5.87745 68.8695 5.27053 68.5695 4.7702 68.1303C4.5203 67.914 4.3279 67.6392 4.2102 67.3304C4.14786 67.1773 4.11071 67.0152 4.1002 66.8503C4.10153 66.6839 4.12851 66.5186 4.1802 66.3604C4.11739 66.5197 4.08352 66.6891 4.0802 66.8604C4.08161 67.0301 4.10857 67.1986 4.1602 67.3604C4.27579 67.6846 4.46789 67.9762 4.7202 68.2103C5.2281 68.6711 5.84929 68.9886 6.5202 69.1303C7.18293 69.3013 7.88266 69.2593 8.5202 69.0104C8.84031 68.8833 9.12504 68.6809 9.3502 68.4203C9.45858 68.2969 9.54332 68.1545 9.6002 68.0004C9.65018 67.8352 9.67049 67.6626 9.6602 67.4903L9.6402 67.4603Z" fill="#525C3E"/>
<path d="M7.1608 69.8903C6.7285 69.9546 6.28721 69.9186 5.87106 69.7851C5.4549 69.6515 5.07502 69.4241 4.7608 69.1203C4.34334 68.8002 4.04884 68.346 3.92683 67.8343C3.80481 67.3226 3.86271 66.7844 4.0908 66.3103C4.1095 66.292 4.13463 66.2817 4.1608 66.2817C4.18698 66.2817 4.21211 66.292 4.2308 66.3103C4.24913 66.329 4.25939 66.3541 4.25939 66.3803C4.25939 66.4065 4.24913 66.4316 4.2308 66.4503C4.02673 66.8866 3.98202 67.3807 4.10442 67.8466C4.22683 68.3124 4.50862 68.7207 4.9008 69.0003C5.48004 69.4839 6.21532 69.7403 6.96962 69.7219C7.72393 69.7035 8.44583 69.4115 9.0008 68.9003C9.02106 68.8867 9.04559 68.881 9.06978 68.8842C9.09397 68.8875 9.11614 68.8994 9.13212 68.9179C9.1481 68.9363 9.15679 68.9599 9.15654 68.9843C9.1563 69.0087 9.14715 69.0322 9.1308 69.0503C8.56708 69.5115 7.88384 69.8028 7.1608 69.8903Z" fill="#010202"/>
<path d="M6.54023 69.1003C6.1095 69.0719 5.68998 68.9508 5.3103 68.7455C4.93062 68.5401 4.59973 68.2552 4.34023 67.9103C4.32191 67.8916 4.31165 67.8664 4.31165 67.8403C4.31165 67.8141 4.32191 67.789 4.34023 67.7703C4.35994 67.754 4.38469 67.7451 4.41023 67.7451C4.43578 67.7451 4.46053 67.754 4.48023 67.7703C4.72084 68.0787 5.0228 68.334 5.36704 68.5199C5.71128 68.7058 6.09032 68.8183 6.48023 68.8503C6.49437 68.8514 6.50812 68.8555 6.52054 68.8623C6.53297 68.8692 6.5438 68.8786 6.55232 68.8899C6.56083 68.9013 6.56683 68.9143 6.56992 68.9282C6.57301 68.942 6.57311 68.9564 6.57023 68.9703C6.57023 68.9703 6.59023 69.0903 6.54023 69.1003Z" fill="#010202"/>
<path d="M44.0008 20.1101C44.4138 20.0355 44.8387 20.0621 45.2392 20.1875C45.6398 20.3129 46.004 20.5333 46.3008 20.8301C47.1108 21.4801 47.7408 21.0301 49.0908 21.1301V21.0001C48.0308 20.6301 47.8008 21.0001 46.8008 20.4401C46.4154 20.1242 45.9528 19.917 45.4606 19.8396C44.9684 19.7623 44.4644 19.8177 44.0008 20.0001C43.9973 20.0367 43.9973 20.0735 44.0008 20.1101Z" fill="#20100D"/>
<path d="M45.8807 22.4399C44.3407 21.9799 43.7807 20.9299 43.8807 20.2299C43.8761 20.19 43.8761 20.1497 43.8807 20.1099C43.2807 21.5099 44.4607 22.7499 45.6907 23.0599C46.3007 23.2557 46.962 23.2166 47.5447 22.9502C48.1274 22.6838 48.5896 22.2094 48.8407 21.6199C48.5055 22.0623 48.0342 22.3823 47.4993 22.5304C46.9645 22.6786 46.3957 22.6468 45.8807 22.4399Z" fill="#3F4730"/>
<path d="M43.9203 20.2304C43.7803 20.9304 44.3403 21.9804 45.9203 22.4404C46.4403 22.6572 47.0178 22.6943 47.5612 22.5458C48.1047 22.3972 48.583 22.0715 48.9203 21.6204C49.0031 21.4701 49.0477 21.3019 49.0503 21.1304C47.7003 21.0304 47.0503 21.4804 46.2603 20.8304C45.9621 20.5357 45.5978 20.3166 45.1977 20.1914C44.7976 20.0662 44.3734 20.0384 43.9603 20.1104C43.9603 20.1104 43.9303 20.1804 43.9203 20.2304Z" fill="#697550"/>
<path d="M44.0011 19.9998C44.4606 19.831 44.9563 19.7855 45.4388 19.8679C45.9213 19.9504 46.3738 20.1579 46.7511 20.4698C47.7511 21.0498 47.9811 20.6598 49.0411 21.0298C48.9652 20.6533 48.7977 20.3013 48.5536 20.0048C48.3094 19.7084 47.996 19.4765 47.6411 19.3298C46.5011 18.6898 44.4811 18.7498 44.0011 19.9998Z" fill="#697550"/>
<path d="M49.001 20.9998C49.0044 21.1536 48.9772 21.3065 48.921 21.4498C48.8626 21.5889 48.7815 21.7173 48.681 21.8298C48.4701 22.0487 48.2142 22.2193 47.931 22.3298C47.3534 22.5402 46.725 22.5682 46.131 22.4098C45.5294 22.2922 44.9701 22.016 44.511 21.6098C44.2844 21.4113 44.1094 21.1608 44.001 20.8798C43.944 20.736 43.9103 20.5841 43.901 20.4298C43.9115 20.2821 43.9453 20.1369 44.001 19.9998C43.944 20.147 43.9102 20.3022 43.901 20.4598C43.9024 20.6197 43.9294 20.7784 43.981 20.9298C44.0946 21.225 44.2721 21.4914 44.501 21.7098C44.9659 22.1324 45.5357 22.4225 46.151 22.5498C46.7659 22.7029 47.4135 22.6574 48.001 22.4198C48.2933 22.3021 48.5537 22.1171 48.761 21.8798C48.8654 21.7627 48.9468 21.627 49.001 21.4798C49.04 21.3221 49.04 21.1574 49.001 20.9998Z" fill="#525C3E"/>
<path d="M46.7513 23.2397C46.3508 23.2978 45.9423 23.2632 45.5574 23.1383C45.1725 23.0135 44.8214 22.8018 44.5313 22.5197C44.1446 22.226 43.8722 21.8069 43.7609 21.3343C43.6496 20.8617 43.7063 20.365 43.9213 19.9297C43.9288 19.9212 43.938 19.9143 43.9484 19.9097C43.9587 19.905 43.9699 19.9026 43.9813 19.9026C43.9926 19.9026 44.0039 19.905 44.0142 19.9097C44.0245 19.9143 44.0338 19.9212 44.0413 19.9297C44.0568 19.9478 44.0653 19.9708 44.0653 19.9947C44.0653 20.0185 44.0568 20.0416 44.0413 20.0597C43.8444 20.46 43.7945 20.9168 43.9006 21.3501C44.0066 21.7834 44.2618 22.1656 44.6213 22.4297C45.1534 22.8738 45.8283 23.1104 46.5213 23.0957C47.2142 23.081 47.8785 22.816 48.3913 22.3497C48.3997 22.3409 48.4098 22.3339 48.4209 22.3291C48.4321 22.3244 48.4441 22.3219 48.4563 22.3219C48.4684 22.3219 48.4804 22.3244 48.4916 22.3291C48.5028 22.3339 48.5129 22.3409 48.5213 22.3497C48.5301 22.3581 48.537 22.3682 48.5418 22.3793C48.5466 22.3905 48.549 22.4025 48.549 22.4147C48.549 22.4268 48.5466 22.4388 48.5418 22.45C48.537 22.4612 48.5301 22.4713 48.5213 22.4797C48.01 22.8869 47.3987 23.1494 46.7513 23.2397Z" fill="#010202"/>
<path d="M46.1809 22.5C45.7887 22.4731 45.4069 22.3617 45.0618 22.1736C44.7166 21.9855 44.4161 21.725 44.1809 21.41C44.1654 21.3919 44.1569 21.3689 44.1569 21.345C44.1569 21.3212 44.1654 21.2982 44.1809 21.28C44.1997 21.2662 44.2225 21.2588 44.2459 21.2588C44.2692 21.2588 44.292 21.2662 44.3109 21.28C44.5392 21.5689 44.8251 21.807 45.1505 21.9791C45.4759 22.1513 45.8337 22.2538 46.2009 22.28C46.2127 22.2813 46.2242 22.2849 46.2346 22.2906C46.2451 22.2963 46.2543 22.304 46.2618 22.3133C46.2692 22.3226 46.2747 22.3333 46.278 22.3448C46.2813 22.3562 46.2823 22.3682 46.2809 22.38C46.2809 22.38 46.2209 22.5 46.1809 22.5Z" fill="#010202"/>
<path d="M94.7303 83.6998C94.8479 83.6616 94.9567 83.6004 95.0503 83.5198L94.7303 83.6998Z" fill="#333351"/>
<path d="M78.7998 86.3599H78.3198C78.4792 86.3798 78.6404 86.3798 78.7998 86.3599Z" fill="#333351"/>
<path d="M53.0006 65.9997C41.0006 77.2297 33.5206 80.5897 29.0006 81.0997C27.656 81.291 26.2852 81.1608 25.0006 80.7197C24.2783 80.4358 23.667 79.9261 23.2579 79.2666C22.8489 78.607 22.6639 77.8329 22.7306 77.0597C23.1106 71.9397 27.1906 68.8997 29.5506 67.5497C31.0523 66.6759 32.4744 65.6721 33.8006 64.5497C40.6606 57.8797 47.8006 50.6797 51.7006 49.6697L52.4806 59.4997L53.0006 65.9997Z" fill="#6F8352"/>
<path d="M47.0005 64.9999C46.1887 65.3899 45.2885 65.5589 44.3905 65.4899C44.0405 65.4899 43.6505 65.4899 43.2205 65.4899L42.2705 63.3499H46.5005C46.6877 63.3616 46.8669 63.4303 47.014 63.5467C47.161 63.6631 47.269 63.8217 47.3234 64.0012C47.3778 64.1808 47.376 64.3726 47.3183 64.5511C47.2606 64.7296 47.1497 64.8862 47.0005 64.9999Z" fill="white" stroke="#1E1E1C" stroke-width="0.5" stroke-linecap="round" stroke-linejoin="round"/>
<path d="M44.3905 65.4898C44.0405 65.4898 43.6505 65.4898 43.2205 65.4898L42.2705 63.3499H44.4705C44.5686 64.0624 44.5415 64.7866 44.3905 65.4898Z" fill="#3C3C3B"/>
<path d="M91.3406 60.3195C90.3406 61.9695 89.4406 63.6195 88.6306 65.3195C86.273 70.4548 84.3139 75.7638 82.7706 81.1995C82.0069 83.6745 81.4385 86.2056 81.0706 88.7695C81.0106 89.2195 80.9506 89.6795 80.9006 90.1395C80.3468 94.9321 80.4951 99.7798 81.3406 104.53L82.1406 109.04H47.8206C49.4806 100.26 51.4806 92.8595 50.6106 83.4395C42.5406 75.0695 49.0006 66.1195 51.0006 64.6195L51.7806 49.6995L56.9606 49.4695C58.6938 49.3995 60.4295 49.4196 62.1606 49.5295C63.4806 49.6095 64.7906 49.7495 66.0906 49.9395C66.6406 50.0195 67.2006 50.1095 67.7506 50.2095C69.9244 50.6055 72.0692 51.1467 74.1706 51.8295L77.3706 52.8295C79.274 53.3799 81.122 54.1063 82.8906 54.9995C83.3306 55.2195 83.7606 55.4495 84.1806 55.6895C84.7806 56.0395 85.3806 56.3995 85.9606 56.7795L86.0506 56.8395L91.3406 60.3195Z" fill="#A1AB8F"/>
<path d="M91.3405 60.3201C93.1202 61.8778 94.4704 63.8663 95.2618 66.0952C96.0532 68.324 96.2593 70.7187 95.8605 73.0501L90.5105 104.38L79.7205 100.49L81.7205 82.9901C82.1743 79.1348 83.0049 75.3333 84.2005 71.6401L85.6305 67.2201L91.3405 60.3201Z" fill="#6F8352"/>
<path d="M37.5712 68.0497C37.5503 70.1597 36.937 72.2214 35.8012 73.9997C35.0685 75.1601 34.0691 76.1285 32.8863 76.8243C31.7034 77.5201 30.3714 77.9231 29.0012 77.9997C26.7512 78.1197 25.5112 77.1797 25.5812 74.8797C25.6335 73.8157 25.9497 72.7815 26.5014 71.8702C27.053 70.959 27.8227 70.1993 28.7412 69.6597L31.9012 67.7697L33.3512 66.9097L37.5712 68.0497Z" fill="white" stroke="#1E1E1C" stroke-width="0.5" stroke-linecap="round" stroke-linejoin="round"/>
<path d="M37.57 68.0497C37.5689 69.5007 37.2729 70.9364 36.7 72.2696C36.1666 72.408 35.6204 72.4918 35.07 72.5196C32.81 72.6396 31.57 71.6996 31.65 69.3996C31.6667 68.8394 31.7609 68.2841 31.93 67.7496L33.38 66.8896L37.57 68.0497Z" fill="#3C3C3B"/>
<path d="M45.0008 65.6802L43.7008 66.6802C43.2394 66.0786 42.5672 65.674 41.8195 65.5478C41.0719 65.4217 40.3042 65.5833 39.6708 66.0002L37.9308 67.1502C37.4103 67.4946 37.0101 67.9928 36.7861 68.5753C36.562 69.1578 36.5252 69.7958 36.6808 70.4002L36.7608 70.6802L35.7608 71.2602L35.3408 69.6702C35.1757 69.0565 35.2097 68.4063 35.438 67.8132C35.6662 67.2201 36.0769 66.7149 36.6108 66.3702L40.2608 64.0002C40.8794 63.6028 41.6224 63.4463 42.3488 63.5606C43.0751 63.6749 43.7342 64.052 44.2008 64.6202L45.0008 65.6802Z" fill="#333351"/>
<path d="M33.0909 68.56L32.7409 68.24C32.5084 68.0344 32.3363 67.7695 32.2429 67.4735C32.1496 67.1775 32.1385 66.8618 32.2109 66.56C32.3027 66.2115 32.437 65.8756 32.6109 65.56C32.5077 65.1738 32.5079 64.7672 32.6115 64.381C32.7151 63.9949 32.9183 63.6428 33.2009 63.36C33.2009 63.36 33.6809 61.46 34.3309 61.11C34.3309 61.11 34.6509 57.84 38.9109 59.65L39.8109 60.24C41.1564 61.1307 42.3316 62.2551 43.2809 63.56L44.2809 64.91C44.3587 65.0179 44.4037 65.146 44.4104 65.2789C44.4171 65.4117 44.3852 65.5437 44.3186 65.6589C44.2521 65.7741 44.1536 65.8675 44.0352 65.9281C43.9167 65.9886 43.7832 66.0136 43.6509 66C43.1209 65.93 42.3309 65.49 41.1909 64.18C41.1909 64.18 41.8809 66.73 39.1209 66.03C39.1209 66.03 41.1209 67.5 38.2409 67.93C38.2409 67.93 39.5309 70.01 36.8709 70.03C35.4729 70.0219 34.1271 69.4985 33.0909 68.56Z" fill="white" stroke="#1E1E1C" stroke-width="0.5" stroke-linecap="round" stroke-linejoin="round"/>
<g style="mix-blend-mode:multiply" opacity="0.5">
<g style="mix-blend-mode:multiply" opacity="0.5">
<path d="M41.1899 64.4299C41.122 64.4269 41.0577 64.3983 41.0099 64.3499C39.9162 63.3984 38.7186 62.5732 37.4399 61.8899C37.3808 61.8563 37.3372 61.8008 37.3185 61.7354C37.2998 61.6699 37.3075 61.5998 37.3399 61.5399C37.3547 61.5088 37.3757 61.4811 37.4017 61.4584C37.4277 61.4358 37.458 61.4188 37.4909 61.4085C37.5238 61.3981 37.5584 61.3947 37.5927 61.3984C37.6269 61.4021 37.66 61.4128 37.6899 61.4299C39.0151 62.1412 40.2533 63.0036 41.3799 63.9999C41.4271 64.05 41.4533 64.1162 41.4533 64.1849C41.4533 64.2537 41.4271 64.3199 41.3799 64.3699C41.3266 64.4134 41.2586 64.4349 41.1899 64.4299Z" fill="#3C3C3B"/>
</g>
</g>
<g style="mix-blend-mode:multiply" opacity="0.5">
<g style="mix-blend-mode:multiply" opacity="0.5">
<path d="M39.121 66.2804C39.0748 66.2898 39.0272 66.2898 38.981 66.2804L35.661 64.2804C35.6013 64.2446 35.5583 64.1865 35.5414 64.119C35.5245 64.0515 35.5352 63.98 35.571 63.9204C35.6068 63.8607 35.6648 63.8177 35.7323 63.8008C35.7998 63.7839 35.8713 63.7946 35.931 63.8304L39.261 65.8304C39.2899 65.8487 39.315 65.8725 39.3347 65.9006C39.3544 65.9286 39.3684 65.9603 39.3758 65.9937C39.3833 66.0272 39.384 66.0618 39.378 66.0955C39.372 66.1293 39.3595 66.1615 39.341 66.1904C39.3146 66.2224 39.2808 66.2475 39.2423 66.2632C39.2039 66.2789 39.1622 66.2848 39.121 66.2804Z" fill="#3C3C3B"/>
</g>
</g>
<g style="mix-blend-mode:multiply" opacity="0.5">
<g style="mix-blend-mode:multiply" opacity="0.5">
<path d="M38.24 68.1803H38.15L34.71 67.0003C34.6469 66.9756 34.596 66.9273 34.568 66.8657C34.54 66.8041 34.5371 66.734 34.56 66.6703C34.57 66.6373 34.5867 66.6068 34.6091 66.5806C34.6315 66.5545 34.6591 66.5332 34.69 66.5182C34.721 66.5032 34.7548 66.4947 34.7892 66.4934C34.8236 66.492 34.8579 66.4977 34.89 66.5103L38.32 67.7203C38.3743 67.7425 38.4195 67.7824 38.4482 67.8335C38.477 67.8847 38.4876 67.9441 38.4783 68.002C38.469 68.0599 38.4404 68.113 38.3972 68.1526C38.3539 68.1923 38.2985 68.2161 38.24 68.2203V68.1803Z" fill="#3C3C3B"/>
</g>
</g>
<path d="M51.6901 75.3199L41.4801 83.3199C40.969 83.6581 40.3766 83.8531 39.7646 83.8848C39.1526 83.9164 38.5433 83.7835 38.0001 83.4999C36.4818 82.7146 35.1999 81.5393 34.286 80.0947C33.3721 78.6501 32.8593 76.9883 32.8001 75.2799C32.737 74.632 32.8596 73.9796 33.1536 73.3988C33.4475 72.818 33.9007 72.3328 34.4601 71.9999L45.0001 65.6799C50.3201 67.4399 51.6501 70.6299 51.6901 75.3199Z" fill="#74C9E3"/>
<path d="M51.6903 75.3199C43.6903 73.7299 45.0403 65.6799 45.0403 65.6799C50.3203 67.4399 51.6503 70.6299 51.6903 75.3199Z" fill="#74C9E3"/>
<g style="mix-blend-mode:multiply">
<path d="M51.6903 75.3199C43.6903 73.7299 45.0403 65.6799 45.0403 65.6799C50.3203 67.4399 51.6503 70.6299 51.6903 75.3199Z" fill="#74C9E3"/>
</g>
<path d="M51.0007 73.9995C51.4924 74.016 51.9689 74.1737 52.3733 74.4539C52.7776 74.7341 53.0926 75.1249 53.2807 75.5795C53.6512 76.4884 53.8052 77.4709 53.7307 78.4495C53.6634 79.429 53.7171 80.4131 53.8907 81.3795C54.1507 82.4395 54.7707 83.4295 54.7207 84.5195L52.5007 84.4095C52.7523 83.2015 52.6764 81.9483 52.2807 80.7795C51.8834 79.62 51.5692 78.4337 51.3407 77.2295C51.361 76.3534 51.0979 75.4941 50.5907 74.7795" fill="#74C9E3"/>
<path d="M51.0007 73.9995C51.4924 74.016 51.9689 74.1737 52.3733 74.4539C52.7776 74.7341 53.0926 75.1249 53.2807 75.5795C53.6512 76.4884 53.8052 77.4709 53.7307 78.4495C53.6634 79.429 53.7171 80.4131 53.8907 81.3795C54.1507 82.4395 54.7707 83.4295 54.7207 84.5195L52.5007 84.4095C52.7523 83.2015 52.6764 81.9483 52.2807 80.7795C51.8834 79.62 51.5692 78.4337 51.3407 77.2295C51.361 76.3534 51.0979 75.4941 50.5907 74.7795" fill="white"/>
<path d="M50.2296 73.8501C49.9184 73.751 49.6144 73.6307 49.3196 73.4901C48.7696 73.2401 48.2396 72.9602 47.7196 72.6602C47.1996 72.3602 46.8596 72.0601 46.4096 71.8101C45.9351 71.5692 45.4194 71.4199 44.8896 71.3702C44.2963 71.2917 43.6979 71.2583 43.0996 71.2701C41.8896 71.2701 40.6796 71.2702 39.4796 71.4402C38.7696 71.5202 38.0596 71.6101 37.3396 71.6301C36.5894 71.6409 35.8551 71.8478 35.2096 72.2302H35.1296C34.6199 72.5355 34.2079 72.98 33.9422 73.5114C33.6765 74.0429 33.568 74.6392 33.6296 75.2302C33.682 76.7925 34.1497 78.3128 34.9846 79.6344C35.8194 80.9561 36.9913 82.0316 38.3796 82.7502C38.8725 83.0071 39.4247 83.1285 39.9799 83.1022C40.5351 83.0758 41.0733 82.9026 41.5396 82.6002L51.2096 75.2302C51.2096 74.8102 51.2096 74.3901 51.1596 74.0001C50.9996 73.9401 50.4296 73.9201 50.2296 73.8501Z" fill="white"/>
<path d="M34.5597 78.8502C34.7641 78.9573 34.9785 79.0444 35.1997 79.1102C35.8496 79.2934 36.5254 79.3678 37.1997 79.3302C38.5328 79.3351 39.8238 78.8634 40.8397 78.0002C41.4597 77.5202 42.0397 77.0002 42.6797 76.5502C43.3426 76.0926 44.0303 75.6719 44.7397 75.2902C46.1706 74.4604 47.7333 73.882 49.3597 73.5802H49.2797C48.7297 73.3302 48.1997 73.0502 47.6797 72.7502C47.1597 72.4502 46.8197 72.1502 46.3697 71.9002C45.8952 71.6593 45.3795 71.51 44.8497 71.4602C44.2564 71.3818 43.658 71.3484 43.0597 71.3602C41.8497 71.3602 40.6397 71.3602 39.4397 71.5302C38.7297 71.6102 38.0197 71.7002 37.2997 71.7202C36.5495 71.731 35.8152 71.9378 35.1697 72.3202H35.0897C34.5799 72.6255 34.168 73.0701 33.9023 73.6015C33.6365 74.133 33.5281 74.7293 33.5897 75.3202C33.7028 76.5448 34.0312 77.7398 34.5597 78.8502Z" fill="#FDEEEB"/>
<path d="M62.8405 89.28C62.4484 89.2798 62.057 89.2463 61.6705 89.18L61.8305 88.18C62.3994 88.3131 62.99 88.325 63.5637 88.2147C64.1375 88.1044 64.6815 87.8745 65.1605 87.54C66.1895 86.5327 66.779 85.1598 66.8005 83.72C66.8062 83.6604 66.7993 83.6002 66.7804 83.5434C66.7615 83.4865 66.7308 83.4343 66.6905 83.39C66.6478 83.3422 66.5954 83.3041 66.5367 83.2783C66.4781 83.2524 66.4146 83.2393 66.3505 83.24H62.5305V82.24H66.3505C66.5549 82.2395 66.7572 82.2811 66.9448 82.3622C67.1324 82.4432 67.3014 82.562 67.4411 82.7111C67.5809 82.8603 67.6884 83.0366 67.7572 83.229C67.8259 83.4215 67.8542 83.6261 67.8405 83.83C67.8335 84.6874 67.6527 85.5345 67.3089 86.32C66.9651 87.1055 66.4656 87.8131 65.8405 88.4C64.9721 89.0308 63.9121 89.3417 62.8405 89.28Z" fill="#B9E1F1"/>
<path d="M46.3004 80.7701C46.237 80.7687 46.174 80.7802 46.1151 80.8039C46.0563 80.8275 46.0028 80.8628 45.958 80.9077C45.9131 80.9525 45.8778 81.006 45.8542 81.0648C45.8305 81.1237 45.8191 81.1867 45.8204 81.2501V83.6501C45.8244 85.2877 46.2683 86.8942 47.1056 88.3015C47.943 89.7088 49.1431 90.8653 50.5804 91.6501C50.5804 91.895 50.677 92.1301 50.8493 92.3042C51.0215 92.4783 51.2555 92.5775 51.5004 92.5801H58.6004C58.7229 92.5801 58.8442 92.5557 58.9572 92.5082C59.0701 92.4607 59.1724 92.3912 59.2581 92.3036C59.3438 92.216 59.4112 92.1122 59.4562 91.9983C59.5013 91.8844 59.5231 91.7626 59.5204 91.6401V91.5601C60.9228 90.7622 62.0889 89.6073 62.9004 88.2127C63.7119 86.8181 64.1397 85.2336 64.1404 83.6201V81.2201C64.1404 81.1562 64.1277 81.093 64.1029 81.0341C64.0782 80.9752 64.042 80.9218 63.9963 80.8771C63.9507 80.8324 63.8966 80.7973 63.8372 80.7737C63.7778 80.7502 63.7143 80.7388 63.6504 80.7401L46.3004 80.7701Z" fill="#B9E1F1"/>
<g style="mix-blend-mode:multiply" opacity="0.67">
<path d="M63.6507 80.7701C63.7146 80.7688 63.7781 80.7802 63.8375 80.8038C63.8969 80.8273 63.951 80.8624 63.9966 80.9071C64.0423 80.9518 64.0785 81.0052 64.1033 81.0641C64.128 81.123 64.1407 81.1862 64.1407 81.2501V83.6501C64.14 85.2636 63.7122 86.8481 62.9007 88.2427C62.0893 89.6373 60.9231 90.7922 59.5207 91.5901V91.6701C59.5234 91.7926 59.5016 91.9144 59.4565 92.0283C59.4115 92.1423 59.3441 92.2461 59.2584 92.3336C59.1727 92.4212 59.0704 92.4908 58.9575 92.5382C58.8445 92.5857 58.7232 92.6102 58.6007 92.6101H51.5007C51.2585 92.6019 51.0275 92.5059 50.8507 92.3401C50.7465 92.2323 50.6679 92.1024 50.6207 91.9601L51.6207 91.5901C53.9211 90.7896 55.9423 89.3436 57.4426 87.4248C58.9428 85.506 59.8587 83.1957 60.0807 80.7701H63.6507Z" fill="#B9E1F1"/>
</g>
<path d="M49.3406 81.7798H46.3406C46.6206 88.0698 50.2206 89.8598 50.2206 89.8598C48.0006 84.8998 49.3406 81.7798 49.3406 81.7798Z" fill="white"/>
<path d="M79.4798 94.4803H79.2798C75.0316 93.9598 70.8894 92.7859 66.9998 91.0003L63.4698 89.3803C63.4698 89.3803 61.7998 88.6303 57.8798 88.9203L53.1998 88.4103C52.9269 88.3744 52.6495 88.4198 52.4023 88.5408C52.155 88.6617 51.949 88.8528 51.8098 89.0903C51.3398 89.9203 51.8098 91.2603 58.2798 92.1503L51.3698 91.8503C49.8336 90.2151 48.6823 88.2574 47.9998 86.1203C47.923 85.901 47.8028 85.6995 47.6465 85.5277C47.4901 85.3559 47.3008 85.2173 47.0898 85.1203C46.6798 84.9403 46.2098 84.9403 45.9498 85.6603C45.9498 85.6603 45.0898 84.6003 44.6498 85.5503C44.5172 85.8352 44.4923 86.1584 44.5798 86.4603L45.6698 90.7003C45.8531 91.627 46.3823 92.4493 47.1498 93.0003C48.7349 94.1656 50.4064 95.2086 52.1498 96.1203C52.6579 96.3586 53.2278 96.432 53.7798 96.3303L60.9998 94.9303C65.9098 94.2703 77.6598 104.93 86.4898 106.01C87.0575 106.074 87.6322 106.023 88.1802 105.862C88.7282 105.7 89.2384 105.431 89.6808 105.069C90.1233 104.708 90.4891 104.262 90.7568 103.757C91.0245 103.252 91.1887 102.699 91.2398 102.13L91.5998 98.1903C87.8057 96.2596 83.7044 95.0042 79.4798 94.4803Z" fill="white" stroke="#1E1E1C" stroke-width="0.5" stroke-linecap="round" stroke-linejoin="round"/>
<path d="M51.4705 94.61C51.4118 94.6094 51.3551 94.5882 51.3105 94.55L48.0905 91.55C47.6294 91.1121 47.2855 90.5653 47.0905 89.96L45.6905 85.7C45.6743 85.6417 45.6808 85.5794 45.7086 85.5256C45.7364 85.4718 45.7835 85.4305 45.8405 85.41C45.8694 85.4007 45.8998 85.3972 45.9301 85.3997C45.9603 85.4022 45.9898 85.4107 46.0167 85.4246C46.0437 85.4386 46.0676 85.4577 46.0872 85.481C46.1067 85.5042 46.1214 85.5311 46.1305 85.56L47.5205 89.8C47.6955 90.3337 48.0015 90.8151 48.4105 91.2L51.6305 94.2C51.6651 94.2316 51.6893 94.2729 51.6998 94.3186C51.7103 94.3642 51.7066 94.412 51.6892 94.4555C51.6718 94.499 51.6415 94.5361 51.6025 94.562C51.5634 94.5878 51.5173 94.6011 51.4705 94.6V94.61Z" fill="#3C3C3B"/>
<path d="M81.9101 54.52C80.6501 56.84 77.22 58.52 73.1801 58.52C68.0701 58.52 63.9301 55.86 63.9301 52.52C63.9495 51.4935 64.3281 50.5062 65.0001 49.73C65.1222 49.5861 65.2524 49.4492 65.3901 49.32C66.0109 49.4328 66.6512 49.2996 67.1756 48.9488C67.7 48.5979 68.0674 48.0568 68.2 47.44L69.5501 41.23L79.6501 43.4L80.15 43.51L79 48.62C78.7588 49.7749 78.9054 50.9772 79.4171 52.0403C79.9288 53.1034 80.7769 53.968 81.83 54.5L81.9101 54.52Z" fill="white" stroke="#1E1E1C" stroke-width="0.5" stroke-linecap="round" stroke-linejoin="round"/>
<path d="M79.6805 44.07C79.6805 48.4 75.8005 51.91 71.0205 51.91C68.8235 51.9281 66.6935 51.1542 65.0205 49.73C65.1427 49.5861 65.2729 49.4492 65.4105 49.32C66.0313 49.4328 66.6716 49.2996 67.1961 48.9488C67.7205 48.5979 68.0879 48.0568 68.2205 47.44L69.5705 41.23L79.6505 43.4C79.6705 43.62 79.6805 43.85 79.6805 44.07Z" fill="#27333A"/>
<path d="M91.8614 35.5103C91.1714 39.7503 87.0514 38.9103 87.0514 38.9103C85.8944 41.0511 84.2585 42.8957 82.2713 44.3003C81.9813 44.5003 81.8113 44.6003 81.8113 44.6003L81.3113 44.9003C80.5114 45.3603 79.7414 45.7603 79.0114 46.1003C78.6514 46.2703 78.3014 46.4103 77.9614 46.5503C77.4621 46.7595 76.9513 46.9398 76.4314 47.0903C75.7104 47.3098 74.9754 47.4802 74.2314 47.6003C73.6918 47.6793 73.1463 47.7094 72.6014 47.6903C71.1636 47.6243 69.7665 47.193 68.5417 46.4371C67.317 45.6813 66.305 44.6258 65.6014 43.3703C65.3691 42.9942 65.1684 42.5996 65.0014 42.1903C64.8061 41.6605 64.6425 41.1196 64.5114 40.5703C64.5114 40.3803 64.4314 40.2003 64.4014 40.0203C64.3024 39.4484 64.2422 38.8704 64.2214 38.2903C64.1915 37.4475 64.2417 36.6037 64.3714 35.7703C64.4314 35.3803 64.5113 34.9803 64.5913 34.5903L64.6814 34.2503C64.6814 34.0503 64.7813 33.8503 64.8413 33.6503C64.9013 33.4503 64.9814 33.1703 65.0714 32.9303L65.5514 31.5003C66.0914 29.9303 66.6114 28.3703 67.0314 26.7803C67.6314 24.4903 69.4614 22.4303 71.2014 20.7803C72.3043 19.6906 73.5906 18.8037 75.0014 18.1603C76.9656 17.3874 79.0857 17.0931 81.1863 17.3017C83.2868 17.5104 85.3075 18.216 87.0814 19.3603C91.7914 22.5403 91.2714 27.8503 88.9414 32.2303C92.5614 31.2603 91.8614 35.5103 91.8614 35.5103Z" fill="white" stroke="#1E1E1C" stroke-width="0.5" stroke-miterlimit="10"/>
<path d="M69.4798 36.5598C69.718 36.2863 69.9902 36.0443 70.2898 35.8398C70.6034 35.5778 70.8914 35.2864 71.1498 34.9698C71.6625 34.3514 72.062 33.6472 72.3298 32.8898C72.3756 32.7921 72.4572 32.7158 72.5578 32.6768C72.6583 32.6377 72.77 32.6387 72.8698 32.6798C72.9165 32.7013 72.9585 32.7318 72.9934 32.7697C73.0283 32.8075 73.0554 32.8519 73.073 32.9002C73.0907 32.9486 73.0986 32.9999 73.0963 33.0513C73.0941 33.1027 73.0816 33.1532 73.0598 33.1998C72.5912 34.4796 71.7904 35.6117 70.7398 36.4798C70.3298 36.8098 69.7398 37.1398 70.0898 37.7098C70.4398 38.2798 71.1698 38.3398 71.7698 38.4198C72.3698 38.4998 72.1298 39.2698 71.6198 39.2098C70.8391 39.1993 70.0917 38.8918 69.5298 38.3498C69.3206 38.1009 69.2018 37.7885 69.1927 37.4635C69.1836 37.1385 69.2848 36.82 69.4798 36.5598Z" fill="#3C3C3B"/>
<path d="M78.1009 34.7898C77.8209 35.4798 77.2009 35.9198 76.7209 35.7898C76.2409 35.6598 76.0909 34.9298 76.3709 34.2398C76.6509 33.5498 77.2709 33.1098 77.7509 33.2398C78.2309 33.3698 78.3909 34.0998 78.1009 34.7898Z" fill="#3C3C3B"/>
<path d="M70.4311 32.7699C70.1411 33.4699 69.5311 33.8999 69.0511 33.7699C68.5711 33.6399 68.4111 32.9199 68.6911 32.2199C68.9711 31.5199 69.6011 31.0899 70.0711 31.2199C70.5411 31.3499 70.7111 32.0799 70.4311 32.7699Z" fill="#3C3C3B"/>
<path d="M71.4604 27.5903C71.3158 27.488 71.1468 27.4258 70.9704 27.4103C70.4002 27.3728 69.834 27.5279 69.3625 27.8507C68.8911 28.1734 68.5417 28.6452 68.3704 29.1903C68.4647 29.041 68.5911 28.9146 68.7404 28.8203C68.8183 28.754 68.906 28.7 69.0004 28.6603C69.3645 28.5411 69.751 28.5069 70.1304 28.5603C70.5084 28.6147 70.8923 28.6147 71.2704 28.5603C71.3665 28.5488 71.4564 28.5066 71.5267 28.4399C71.5969 28.3733 71.6438 28.2857 71.6604 28.1903C71.6819 28.0815 71.6747 27.969 71.6397 27.8639C71.6046 27.7587 71.5428 27.6644 71.4604 27.5903Z" fill="#3C3C3B"/>
<path d="M78.1903 28.9997C78.3623 28.9336 78.5491 28.9163 78.7303 28.9497C79.2765 29.0536 79.7655 29.3543 80.1047 29.7949C80.4438 30.2354 80.6095 30.7851 80.5703 31.3397C80.5307 31.1704 80.4519 31.0129 80.3403 30.8797C80.2874 30.7949 80.2197 30.7204 80.1403 30.6597C79.8419 30.4536 79.4994 30.3201 79.1403 30.2697C78.7445 30.2186 78.3595 30.1037 78.0003 29.9297C77.9115 29.8942 77.838 29.8288 77.7923 29.7448C77.7467 29.6608 77.7318 29.5635 77.7503 29.4697C77.7841 29.3636 77.8412 29.2664 77.9173 29.1851C77.9934 29.1038 78.0867 29.0404 78.1903 28.9997Z" fill="#3C3C3B"/>
<path d="M76.6106 40.2998C75.8564 40.8112 74.9901 41.1335 74.0851 41.2397C73.18 41.3459 72.2628 41.2327 71.4106 40.9098C71.3151 40.8856 71.214 40.8966 71.1259 40.9408C71.0378 40.9851 70.9686 41.0595 70.931 41.1506C70.8933 41.2417 70.8898 41.3433 70.9209 41.4368C70.9521 41.5303 71.0159 41.6095 71.1006 41.6598C72.0875 42.0253 73.1479 42.1479 74.1922 42.0173C75.2365 41.8868 76.234 41.5069 77.1006 40.9098C77.5506 40.6098 77.0506 39.9998 76.6106 40.2998Z" fill="#3C3C3B"/>
<path d="M92.1909 22.6595C91.3988 20.6301 89.9478 18.9255 88.0709 17.8195C84.2809 15.6595 79.1909 16.5595 75.7009 13.9995C75.5846 14.3398 75.5623 14.7052 75.6362 15.0572C75.7101 15.4092 75.8776 15.7347 76.1209 15.9995C75.1633 15.8007 74.1747 15.8048 73.2188 16.0115C72.2629 16.2182 71.3609 16.6229 70.5709 17.1995C68.9956 18.3566 67.5946 19.734 66.4109 21.2895L68.0509 20.6095C66.1764 21.5084 64.6518 23.0021 63.7148 24.858C62.7779 26.7138 62.4812 28.8274 62.8709 30.8695C63.1219 31.711 63.2894 32.5752 63.3709 33.4495C63.4055 33.888 63.3124 34.3271 63.1031 34.7139C62.8937 35.1007 62.5769 35.4187 62.1909 35.6295C62.4657 35.7512 62.7711 35.7858 63.0662 35.7286C63.3612 35.6714 63.6316 35.5251 63.8409 35.3095C64.2479 34.8649 64.5578 34.3405 64.7509 33.7695L65.8909 30.9995C67.2605 27.6936 69.7345 24.9652 72.8909 23.2795H72.9609C72.4781 23.7033 72.1103 24.2423 71.8916 24.8464C71.673 25.4505 71.6107 26.1001 71.7105 26.7347C71.8103 27.3694 72.0689 27.9685 72.4624 28.4764C72.8558 28.9842 73.3713 29.3843 73.9609 29.6395C74.0475 28.4994 74.4152 27.3985 75.0312 26.4352C75.6472 25.472 76.4923 24.6764 77.4909 24.1195C76.9427 24.9094 76.6709 25.8584 76.718 26.8187C76.765 27.7791 77.1281 28.697 77.7509 29.4295C78.3677 27.5411 79.6046 25.9165 81.2609 24.8195C80.3969 26.5007 80.2247 28.453 80.7809 30.2595C81.2409 31.7095 82.1509 32.9995 82.5209 34.4795C82.8909 35.9595 82.4409 37.8395 81.0109 38.3595C82.0652 38.6128 83.1718 38.536 84.1809 38.1395C83.9118 38.4341 83.7141 38.7866 83.6032 39.1699C83.4922 39.5531 83.4709 39.9567 83.5409 40.3495C83.7209 41.4495 84.3409 42.4295 84.5409 43.5195C84.7409 44.6095 84.4809 45.9995 83.4209 46.3495C85.1848 46.1366 86.8519 45.4266 88.2276 44.3023C89.6033 43.178 90.6311 41.6857 91.1909 39.9995C91.5996 38.3211 91.8705 36.6121 92.0009 34.8895C92.2809 32.8895 92.8309 30.9995 93.0009 29.0295C93.2561 26.8719 92.9779 24.6846 92.1909 22.6595Z" fill="#3C3C3B"/>
<path d="M99.7105 105H95.0005V84.8501H99.6705C101.144 84.8527 102.557 85.4394 103.599 86.4815C104.641 87.5236 105.228 88.9363 105.23 90.4101V99.4101C105.236 100.882 104.658 102.297 103.624 103.344C102.589 104.391 101.183 104.987 99.7105 105ZM96.4705 103.57H99.7105C100.808 103.567 101.859 103.13 102.635 102.355C103.411 101.579 103.848 100.527 103.85 99.4301V90.4301C103.848 89.3338 103.41 88.2834 102.634 87.5091C101.858 86.7349 100.807 86.3001 99.7105 86.3001H96.4705V103.57Z" fill="#74C9E3"/>
<path d="M82.7201 80.5999H97.7201V104.85C97.7201 105.048 97.681 105.245 97.6051 105.428C97.5293 105.611 97.418 105.777 97.2778 105.918C97.1376 106.058 96.9711 106.169 96.7879 106.245C96.6047 106.321 96.4084 106.36 96.2101 106.36H84.2101C83.8096 106.36 83.4255 106.201 83.1423 105.918C82.8592 105.634 82.7001 105.25 82.7001 104.85V80.5999H82.7201Z" fill="#B9E1F1"/>
<path d="M97.2904 82.6799H83.2504V85.4399H97.2904V82.6799Z" fill="#853E1E"/>
<g style="mix-blend-mode:multiply">
<path d="M82.7201 80.5999V82.5299H82.8201C85.009 82.7517 87.0898 83.591 88.8201 84.9499C90.6073 86.2706 92.0708 87.9803 93.1001 89.9498C94.0807 91.9642 94.6517 94.1532 94.7801 96.3898C94.8817 97.5001 94.9084 98.616 94.8601 99.7299C94.8006 100.935 94.5889 102.128 94.2301 103.28C93.9201 104.34 93.5201 105.37 93.1401 106.4H96.2201C96.6198 106.397 97.0023 106.237 97.2849 105.955C97.5675 105.672 97.7275 105.29 97.7301 104.89V80.5999H82.7201Z" fill="#B9E1F1"/>
</g>
<path d="M90.3999 89.8399V82.4299H90.1399V89.8399H89.4799V92.1999H91.0599V89.8399H90.3999Z" fill="#B9B8BE"/>
<path d="M96.9405 95.8799V104.34C96.9434 104.536 96.8985 104.729 96.8096 104.903C96.7207 105.077 96.5906 105.227 96.4305 105.34C96.2233 105.488 95.9752 105.569 95.7205 105.57H84.5405C84.2324 105.567 83.9365 105.449 83.7105 105.24C83.5896 105.128 83.4934 104.991 83.4279 104.84C83.3625 104.688 83.3293 104.525 83.3305 104.36V95.1299L83.7105 95.3599C84.1886 95.63 84.7095 95.816 85.2505 95.9099H85.5605C86.6292 95.9842 87.7028 95.8863 88.7405 95.6199C89.3405 95.4899 89.9505 95.3299 90.5705 95.2499C91.234 95.1704 91.9033 95.1503 92.5705 95.1899C93.3503 95.2534 94.1252 95.367 94.8905 95.5299C95.4005 95.6199 95.8905 95.7199 96.4205 95.7899L96.9405 95.8799Z" fill="#853E1E"/>
<g style="mix-blend-mode:screen">
<path d="M86.7505 104.29C86.4286 103.251 86.2109 102.182 86.1005 101.1C85.992 100 85.9585 98.8943 86.0005 97.79C86.0005 97.19 86.0505 96.58 86.0905 95.98H85.5705H85.2605C84.7195 95.8861 84.1986 95.7 83.7205 95.43L83.3405 95.2V104.41C83.3393 104.575 83.3725 104.738 83.438 104.89C83.5034 105.041 83.5996 105.178 83.7205 105.29C83.9466 105.499 84.2424 105.617 84.5505 105.62H87.2605C87.0629 105.188 86.8925 104.744 86.7505 104.29Z" fill="#853E1E"/>
</g>
<g style="mix-blend-mode:multiply" opacity="0.24">
<path d="M96.4399 95.8298C95.9299 95.7598 95.4399 95.6598 94.9099 95.5698L93.4999 95.3298C93.5994 95.5261 93.683 95.7301 93.7499 95.9398C93.9037 96.4394 94.0141 96.9513 94.0799 97.4698C94.1999 98.3698 94.2399 99.2698 94.2999 100.17C94.365 101.042 94.385 101.916 94.3599 102.79C94.347 103.721 94.2228 104.648 93.9899 105.55H95.7299C95.9847 105.549 96.2327 105.468 96.4399 105.32C96.6 105.207 96.7301 105.057 96.819 104.883C96.9079 104.709 96.9528 104.515 96.9499 104.32V95.8798L96.4399 95.8298Z" fill="#853E1E"/>
</g>
<g style="mix-blend-mode:multiply" opacity="0.27">
<path d="M96.4405 95.8301C95.9305 95.7601 95.4405 95.6601 94.9105 95.5701H94.7305C94.6702 96.7359 94.4584 97.8889 94.1005 99.0001C93.7064 100.32 92.8961 101.478 91.7905 102.3C90.8471 102.891 89.7975 103.292 88.7005 103.48C87.4948 103.741 86.2526 103.789 85.0305 103.62C84.4349 103.531 83.8596 103.338 83.3305 103.05V104.35C83.3293 104.515 83.3625 104.679 83.4279 104.83C83.4934 104.982 83.5896 105.118 83.7105 105.23C83.9365 105.439 84.2324 105.557 84.5405 105.56H95.7205C95.9752 105.559 96.2233 105.478 96.4305 105.33C96.5906 105.218 96.7207 105.068 96.8096 104.893C96.8985 104.719 96.9434 104.526 96.9405 104.33V95.8801L96.4405 95.8301Z" fill="#853E1E"/>
</g>
<path d="M97.7301 84.8501H82.7201V87.3101H97.7301V84.8501Z" fill="#333351"/>
<path d="M94.34 73.6301H86.11V77.3401H94.34V73.6301Z" fill="#333351"/>
<path d="M94.401 73.6303H86.061C85.8143 73.6303 85.5778 73.5323 85.4034 73.3579C85.229 73.1835 85.131 72.9469 85.131 72.7003C85.131 72.4536 85.229 72.2171 85.4034 72.0427C85.5778 71.8682 85.8143 71.7703 86.061 71.7703H94.401C94.6476 71.7703 94.8842 71.8682 95.0586 72.0427C95.233 72.2171 95.331 72.4536 95.331 72.7003C95.331 72.9469 95.233 73.1835 95.0586 73.3579C94.8842 73.5323 94.6476 73.6303 94.401 73.6303Z" fill="#B9B8BE"/>
<path d="M97.7701 80.5999H82.7701V82.8599H97.7701V80.5999Z" fill="#B9B8BE"/>
<g style="mix-blend-mode:screen">
<g style="mix-blend-mode:screen">
<path d="M85.7801 80.5999H82.7701V82.8599H85.7801V80.5999Z" fill="#B9B8BE"/>
</g>
</g>
<g style="mix-blend-mode:screen">
<g style="mix-blend-mode:screen">
<path d="M87.7903 80.5999H86.7603V82.8599H87.7903V80.5999Z" fill="#B9B8BE"/>
</g>
</g>
<g style="mix-blend-mode:screen">
<g style="mix-blend-mode:screen">
<path d="M89.3308 80.5999H88.3008V82.8599H89.3308V80.5999Z" fill="#B9B8BE"/>
</g>
</g>
<g style="mix-blend-mode:multiply">
<g style="mix-blend-mode:multiply">
<path d="M95.3203 80.5999H90.5103V82.8599H95.3203V80.5999Z" fill="#B9B8BE"/>
</g>
</g>
<g style="mix-blend-mode:multiply">
<g style="mix-blend-mode:multiply">
<path d="M97.1209 80.5999H96.1709V82.8599H97.1209V80.5999Z" fill="#B9B8BE"/>
</g>
</g>
<path d="M97.7701 91.49H82.7701V92.91H97.7701V91.49Z" fill="#B9B8BE"/>
<g style="mix-blend-mode:screen">
<g style="mix-blend-mode:screen">
<path d="M85.7801 91.49H82.7701V92.91H85.7801V91.49Z" fill="#B9B8BE"/>
</g>
</g>
<g style="mix-blend-mode:screen">
<g style="mix-blend-mode:screen">
<path d="M87.7903 91.49H86.7603V92.91H87.7903V91.49Z" fill="#B9B8BE"/>
</g>
</g>
<g style="mix-blend-mode:screen">
<g style="mix-blend-mode:screen">
<path d="M89.3308 91.49H88.3008V92.91H89.3308V91.49Z" fill="#B9B8BE"/>
</g>
</g>
<g style="mix-blend-mode:multiply">
<g style="mix-blend-mode:multiply">
<path d="M95.3203 91.49H90.5103V92.91H95.3203V91.49Z" fill="#B9B8BE"/>
</g>
</g>
<g style="mix-blend-mode:multiply">
<g style="mix-blend-mode:multiply">
<path d="M97.1209 91.49H96.1709V92.91H97.1209V91.49Z" fill="#B9B8BE"/>
</g>
</g>
<path d="M84.1704 94.6496H83.5704V83.6196H85.7804L84.1704 94.6496Z" fill="white"/>
<path d="M79.5906 80.5999L82.7206 87.3199L82.7706 80.5999H79.5906Z" fill="#B9E1F1"/>
<path d="M97.7301 80.6001H82.7301C82.8201 77.8401 86.1301 75.6001 90.2101 75.6001C94.2901 75.6001 97.6401 77.8401 97.7301 80.6001Z" fill="#B9E1F1"/>
<g style="mix-blend-mode:multiply">
<path d="M90.2501 75.6095C89.3701 75.6056 88.4931 75.7131 87.6401 75.9295C88.9392 75.8868 90.2339 76.1009 91.4501 76.5595C91.9927 76.7597 92.4844 77.0773 92.8901 77.4895C93.0098 77.6192 93.0886 77.7812 93.1169 77.9554C93.1452 78.1296 93.1216 78.3083 93.0492 78.4692C92.9767 78.6301 92.8585 78.7662 92.7094 78.8605C92.5602 78.9548 92.3866 79.0031 92.2101 78.9995C89.6401 78.9995 84.1201 78.9995 83.2101 78.9995C82.924 79.5113 82.763 80.0835 82.7401 80.6695H97.7401C97.6401 77.8395 94.3301 75.6095 90.2501 75.6095Z" fill="#B9E1F1"/>
</g>
<path d="M29.5001 80.21H15.4401C14.4401 80.21 12.8801 106.73 13.9201 106.78H31.0001C32.0001 106.73 30.5101 80.16 29.5001 80.21Z" fill="#CBBBA0"/>
<g style="mix-blend-mode:screen">
<path d="M22.4808 84.29C20.867 84.2923 19.313 84.9013 18.1274 85.9961C16.9418 87.0909 16.2113 88.5915 16.0808 90.2C15.7308 94.64 15.4108 99.97 15.8908 99.98H29.1208C29.5708 99.98 29.2408 94.63 28.8808 90.19C28.7501 88.5825 28.0192 87.083 26.8334 85.9898C25.6475 84.8966 24.0936 84.2898 22.4808 84.29Z" fill="#C41624"/>
</g>
<g style="mix-blend-mode:screen">
<path d="M22.48 85.9099C21.1983 85.9085 19.9632 86.3906 19.0215 87.26C18.0798 88.1295 17.5007 89.3222 17.4 90.5999C17.12 94.1299 16.87 98.3599 17.25 98.3699H27.76C28.12 98.3699 27.85 94.1199 27.57 90.5899C27.4645 89.3131 26.8823 88.1228 25.9392 87.2556C24.9961 86.3885 23.7612 85.9081 22.48 85.9099Z" fill="#C41624"/>
</g>
<g style="mix-blend-mode:screen">
<path d="M29.4902 101.35H15.4402V104.04H29.4902V101.35Z" fill="#C41624"/>
</g>
<path d="M22.8107 91.8497C21.7107 92.9297 20.3007 93.3597 19.3007 92.4797C18.3007 91.5997 18.7607 90.3797 19.8707 89.2997C20.9807 88.2197 22.2907 87.7296 23.2907 88.5996C24.2907 89.4696 23.9107 90.7797 22.8107 91.8497Z" fill="#853E1E"/>
<g style="mix-blend-mode:multiply" opacity="0.51">
<path d="M22.8107 91.8497C21.7107 92.9297 20.3007 93.3597 19.3007 92.4797C18.3007 91.5997 18.7607 90.3797 19.8707 89.2997C20.9807 88.2197 22.2907 87.7296 23.2907 88.5996C24.2907 89.4696 23.9107 90.7797 22.8107 91.8497Z" fill="#853E1E"/>
</g>
<g style="mix-blend-mode:multiply">
<path d="M21.791 90.9998C20.791 91.9998 19.851 92.5998 19.541 92.3298C19.231 92.0598 19.901 91.1798 20.891 90.2198C21.881 89.2598 22.801 88.5898 23.111 88.8598C23.421 89.1298 22.771 89.9998 21.791 90.9998Z" fill="#853E1E"/>
</g>
<path d="M26.1405 93.4397C25.8305 94.8897 24.8905 95.9397 23.5405 95.6997C22.1905 95.4597 21.8605 94.1797 22.1705 92.6997C22.4805 91.2197 23.3005 90.1797 24.6605 90.4197C26.0205 90.6597 26.4505 91.9997 26.1405 93.4397Z" fill="#853E1E"/>
<g style="mix-blend-mode:multiply" opacity="0.17">
<path d="M26.1405 93.4397C25.8305 94.8897 24.8905 95.9397 23.5405 95.6997C22.1905 95.4597 21.8605 94.1797 22.1705 92.6997C22.4805 91.2197 23.3005 90.1797 24.6605 90.4197C26.0205 90.6597 26.4505 91.9997 26.1405 93.4397Z" fill="#853E1E"/>
</g>
<g style="mix-blend-mode:multiply">
<path d="M24.7601 93.1997C24.4801 94.4897 24.0501 95.4997 23.6301 95.4297C23.2101 95.3597 23.2701 94.2697 23.5501 92.9797C23.8301 91.6897 24.2201 90.6597 24.6401 90.7397C25.0601 90.8197 25.0001 91.8997 24.7601 93.1997Z" fill="#853E1E"/>
</g>
<path d="M22.7606 94.72C22.4506 96.17 21.5206 97.22 20.1606 96.98C18.8006 96.74 18.4806 95.46 18.7906 93.98C19.1006 92.5 19.9206 91.46 21.2806 91.7C22.6406 91.94 23.0706 93.28 22.7606 94.72Z" fill="#853E1E"/>
<g style="mix-blend-mode:multiply">
<path d="M21.3903 94.48C21.1103 95.77 20.6703 96.78 20.2603 96.71C19.8503 96.64 19.8903 95.55 20.1703 94.26C20.4503 92.97 20.8503 91.94 21.2603 92.02C21.6703 92.1 21.6603 93.18 21.3903 94.48Z" fill="#853E1E"/>
</g>
<g style="mix-blend-mode:multiply" opacity="0.25">
<path d="M31.0009 106.78H13.9309C13.6809 106.78 13.5809 105.23 13.5809 102.91C21.0509 102.91 27.0609 97.25 26.8609 90.39C26.7609 86.69 26.5809 82.91 26.2809 80.21H29.5009C30.5109 80.16 32.0009 106.73 31.0009 106.78Z" fill="#936037"/>
</g>
<path d="M29.4902 77.9397H15.4402V80.1997H29.4902V77.9397Z" fill="#C41624"/>
<path d="M29.4902 77.9397H15.4402V80.1997H29.4902V77.9397Z" fill="#C41624"/>
<path d="M29.4902 77.9397H15.4402V80.1997H29.4902V77.9397Z" fill="#936037"/>
<path d="M79.8801 103.2C79.5453 103.198 79.211 103.171 78.8801 103.12L79.0201 102.25C79.4986 102.361 79.9951 102.37 80.4774 102.277C80.9598 102.184 81.4172 101.991 81.8201 101.71C82.6875 100.856 83.1864 99.6968 83.2101 98.48C83.2137 98.4289 83.2067 98.3777 83.1895 98.3295C83.1723 98.2813 83.1453 98.2372 83.1101 98.2C83.0751 98.1607 83.0318 98.1296 82.9835 98.1089C82.9351 98.0881 82.8827 98.0783 82.8301 98.08H79.6201V97.2H82.8401C83.014 97.201 83.1859 97.237 83.3457 97.3057C83.5054 97.3744 83.6497 97.4745 83.7701 97.6C83.8908 97.7351 83.9824 97.8936 84.0392 98.0656C84.0959 98.2377 84.1167 98.4195 84.1001 98.6C84.0886 99.3246 83.9303 100.039 83.6346 100.701C83.339 101.363 82.9122 101.958 82.3801 102.45C81.6569 102.978 80.7747 103.243 79.8801 103.2Z" fill="#B9E1F1"/>
<path d="M65.9208 96.0001C65.8674 95.9988 65.8143 96.0081 65.7646 96.0277C65.7149 96.0472 65.6696 96.0764 65.6314 96.1137C65.5932 96.151 65.5629 96.1955 65.5421 96.2447C65.5214 96.2939 65.5107 96.3467 65.5108 96.4001V98.4001C65.508 99.7851 65.8779 101.145 66.5817 102.338C67.2854 103.531 68.2971 104.513 69.5108 105.18C69.5108 105.387 69.5929 105.585 69.7392 105.732C69.8855 105.878 70.0839 105.96 70.2908 105.96H76.2908C76.4985 105.958 76.6969 105.873 76.8429 105.725C76.9889 105.577 77.0708 105.378 77.0708 105.17V105.1C78.2521 104.434 79.2374 103.469 79.9273 102.302C80.6172 101.135 80.9874 99.8061 81.0008 98.4501V96.4501C81.0008 96.3967 80.9901 96.3439 80.9694 96.2947C80.9487 96.2455 80.9183 96.201 80.8801 96.1637C80.8419 96.1264 80.7966 96.0972 80.7469 96.0777C80.6972 96.0582 80.6441 96.0488 80.5907 96.0501L65.9208 96.0001Z" fill="#B9E1F1"/>
<g style="mix-blend-mode:multiply" opacity="0.67">
<path d="M80.5608 96.0001C80.6141 95.9988 80.6672 96.0081 80.7169 96.0277C80.7666 96.0472 80.8119 96.0764 80.8501 96.1137C80.8883 96.151 80.9187 96.1955 80.9394 96.2447C80.9601 96.2939 80.9708 96.3467 80.9708 96.4001V98.4001C80.9703 99.7618 80.6091 101.099 79.9241 102.276C79.2391 103.453 78.2546 104.427 77.0708 105.1V105.17C77.0708 105.378 76.9889 105.577 76.8429 105.725C76.6969 105.873 76.4986 105.958 76.2908 105.96H70.2908C70.1884 105.96 70.087 105.94 69.9926 105.901C69.8982 105.861 69.8126 105.803 69.7408 105.73C69.6504 105.64 69.582 105.531 69.5408 105.41L70.4208 105.1C72.3603 104.43 74.0658 103.215 75.3337 101.601C76.6016 99.9877 77.3782 98.0432 77.5708 96.0001H80.5608Z" fill="#B9E1F1"/>
</g>
<path d="M68.4809 96.8696H66.0009C66.2309 102.18 69.2709 103.69 69.2709 103.69C67.3609 99.4996 68.4809 96.8696 68.4809 96.8696Z" fill="white"/>
<g opacity="0.28">
<path opacity="0.28" d="M79.2308 84.4101C77.9208 83.0001 76.0008 81.93 75.7208 80.05C75.4408 78.37 76.5808 76.64 76.3608 75.05C76.1178 76.2676 75.5513 77.3972 74.7208 78.32C73.8008 79.54 72.8908 81.09 73.4508 82.51C74.0108 83.93 75.8008 84.51 76.2608 85.9801C76.3703 86.5731 76.3367 87.1837 76.1627 87.7611C75.9888 88.3385 75.6796 88.8661 75.2608 89.3001C74.4401 90.1683 73.7949 91.187 73.3608 92.3001C73.2281 92.9402 73.24 93.6019 73.3957 94.2368C73.5515 94.8718 73.847 95.4639 74.2608 95.97L77.0008 96.04C77.0188 94.7803 77.3633 93.5467 78.0008 92.46C78.8608 91.46 80.0008 90.68 80.5108 89.46C81.2908 87.75 80.4908 85.7501 79.2308 84.4101Z" fill="#FEFFFF"/>
</g>
<g opacity="0.28">
<path opacity="0.28" d="M71.9004 89.1198C71.1204 88.2998 70.0004 87.6498 69.8104 86.5298C69.6204 85.4098 70.3204 84.5298 70.1904 83.5298C70.0362 84.2541 69.6909 84.9239 69.1904 85.4698C68.8655 85.7957 68.6289 86.1989 68.5029 86.6416C68.3769 87.0842 68.3658 87.5516 68.4704 87.9998C68.7904 88.8298 69.8604 89.2198 70.1304 90.0698C70.2064 90.4236 70.1951 90.7905 70.0975 91.139C69.9999 91.4874 69.819 91.8069 69.5704 92.0698C69.0808 92.5872 68.697 93.1952 68.4404 93.8598C68.37 94.2357 68.3837 94.6226 68.4805 94.9926C68.5773 95.3626 68.7549 95.7066 69.0004 95.9998H70.6304C70.6446 95.2519 70.8549 94.5208 71.2404 93.8798C71.8252 93.37 72.3278 92.7729 72.7304 92.1098C72.8859 91.5837 72.8905 91.0245 72.7438 90.4959C72.597 89.9673 72.3048 89.4905 71.9004 89.1198Z" fill="#FEFFFF"/>
</g>
<path d="M105.59 106.21H12.7202C12.074 106.21 11.5502 106.734 11.5502 107.38V110.07C11.5502 110.716 12.074 111.24 12.7202 111.24H105.59C106.236 111.24 106.76 110.716 106.76 110.07V107.38C106.76 106.734 106.236 106.21 105.59 106.21Z" fill="#683C11"/>
<path d="M105.51 105.41H12.5601C11.914 105.41 11.3901 105.934 11.3901 106.58V109.27C11.3901 109.916 11.914 110.44 12.5601 110.44H105.51C106.156 110.44 106.68 109.916 106.68 109.27V106.58C106.68 105.934 106.156 105.41 105.51 105.41Z" fill="#936037"/>
<path d="M17.0408 80.21L19.1908 79.41L17.0408 78.61L16.2408 76.45L15.4408 78.61L13.2908 79.41L15.4408 80.21L16.2408 82.36L17.0408 80.21Z" fill="#F6C019"/>
</svg>
