<svg width="28" height="28" viewBox="0 0 28 28" fill="none" xmlns="http://www.w3.org/2000/svg">
<path d="M14 0.666748C11.3633 0.667311 8.78601 1.4496 6.59387 2.91473C4.40174 4.37985 2.69321 6.46202 1.68428 8.89802C0.675347 11.334 0.411307 14.0145 0.925541 16.6005C1.43978 19.1865 2.70919 21.5621 4.57332 23.4267L23.4267 4.57341C20.9268 2.07276 17.5359 0.667503 14 0.666748Z" fill="#F9E285"/>
<path d="M4.57333 23.4268C5.80329 24.7003 7.27455 25.7161 8.90127 26.4148C10.528 27.1136 12.2776 27.4814 14.048 27.4968C15.8184 27.5122 17.5741 27.1749 19.2127 26.5044C20.8513 25.834 22.34 24.844 23.5919 23.5921C24.8438 22.3402 25.8339 20.8515 26.5043 19.2129C27.1747 17.5743 27.5121 15.8185 27.4967 14.0481C27.4813 12.2777 27.1135 10.5281 26.4147 8.90143C25.7159 7.27471 24.7001 5.80344 23.4267 4.57349L4.57333 23.4268Z" fill="#F5CE34"/>
<path d="M14 24.6668C19.891 24.6668 24.6666 19.8912 24.6666 14.0002C24.6666 8.10912 19.891 3.3335 14 3.3335C8.10894 3.3335 3.33331 8.10912 3.33331 14.0002C3.33331 19.8912 8.10894 24.6668 14 24.6668Z" fill="#ED9121"/>
<path d="M8.66666 19.2135C8.66666 19.2135 8.17332 18.6668 9.21332 16.5468C9.2683 16.4194 9.35958 16.311 9.47576 16.2351C9.59194 16.1593 9.7279 16.1193 9.86666 16.1201C10.6672 16.1105 11.4622 15.9847 12.2267 15.7468L12.6667 15.3335C11.8237 15.5964 10.9492 15.7445 10.0667 15.7735C10.0667 15.7735 9.62666 15.8801 9.90666 15.3868C11.3594 13.0179 13.2673 10.9605 15.52 9.33348C15.8695 9.06977 16.2741 8.88843 16.7035 8.803C17.133 8.71758 17.5762 8.73028 18 8.84014C18.2797 8.92489 18.5325 9.08115 18.7333 9.29348L19.88 8.14681C19.4238 7.75123 18.8794 7.4709 18.2924 7.32937C17.7054 7.18785 17.093 7.18925 16.5067 7.33348C16.2423 7.09397 15.9462 6.89207 15.6267 6.73348C14.9733 6.45348 14.2133 7.33348 14.2133 7.33348C13.679 7.88368 13.0515 8.33507 12.36 8.66681C10.3321 9.3682 8.52477 10.5915 7.11999 12.2135C5.37332 14.6135 7.61332 15.7601 7.61332 15.7601C7.30501 16.3549 7.13525 17.0116 7.11678 17.6812C7.09831 18.3509 7.2316 19.016 7.50666 19.6268C7.59882 19.8283 7.71046 20.0204 7.83999 20.2001L8.74666 19.2935L8.66666 19.2135ZM7.51999 13.2668C8.21682 12.2324 9.22586 11.4476 10.4 11.0268C9.34475 12.3332 8.44951 13.7611 7.73332 15.2801C6.35999 14.9468 7.55999 13.2668 7.55999 13.2668H7.51999Z" fill="#F9E285"/>
<path d="M12.6667 15.3334L12.2667 15.7334C12.773 15.5801 13.2474 15.3361 13.6667 15.0134C13.6667 15.0134 13.2533 15.1601 12.6667 15.3334Z" fill="#F5CE34"/>
<path d="M19.8533 8.14673L18.7067 9.2934C19.1067 9.72006 19.3467 10.5067 18.4667 11.9601C16.6064 15.0188 13.9215 17.4912 10.72 19.0934C10.72 19.0934 9.28 19.8667 8.74666 19.2534L7.84 20.1601C9.17333 22.0001 11.92 21.2267 11.92 21.2267C15.1335 20.1679 17.9323 18.1247 19.92 15.3867C23.08 11.2401 20.7333 8.96006 20.7333 8.96006C20.4715 8.65675 20.1763 8.38392 19.8533 8.14673Z" fill="#F5CE34"/>
</svg>