<svg id="Layer_1" data-name="Layer 1" xmlns="http://www.w3.org/2000/svg" viewBox="0 0 360 360"><defs><style>.cls-1{fill:#b5d69e;}.cls-2{fill:#74b95a;}.cls-3{fill:#f4b84a;}.cls-4{fill:#da9829;}.cls-5{fill:#b6d7a3;}.cls-6{fill:none;stroke:#000;stroke-linecap:round;stroke-linejoin:round;stroke-width:12px;}</style></defs><title>icon mengapa kami</title><path class="cls-1" d="M233.2,35.44h-101A8.51,8.51,0,0,0,123.74,43c-3.12,26.2-22.38,47.07-49.33,51.09-5.52.82-7,8.88-7,14.46l2.15,53.61c0,56.49,27.09,105.82,77,132.28l21.35,11.05c7.41,3.93,16.8,9.28,24.6,6.58a30.15,30.15,0,0,0,4.26-1.85l22.65-12A152.59,152.59,0,0,0,300.51,163.4V105.3a11.3,11.3,0,0,0-9.57-11.21c-27-4-46.21-24.89-49.33-51.09a8.51,8.51,0,0,0-8.41-7.56Zm0,0"/><path class="cls-2" d="M223.09,53H141.33a2.82,2.82,0,0,0-2.82,2.6c-1.7,22.74-25.2,45.77-45.43,52.64-3,1-3.34,5.45-6.08,5.72a2.85,2.85,0,0,0-2.6,2.82l2.29,44.41c0,51.57,25.35,95,70.91,119.13l18,10.48a13.15,13.15,0,0,0,12.37,0l7.31.41,14.51-7.69a138.64,138.64,0,0,0,73.68-122.47V113a2.85,2.85,0,0,0-2.59-2.83c-21.56-2-53-28.5-55-54.58A2.82,2.82,0,0,0,223.09,53Zm0,0"/><path class="cls-3" d="M236.32,115.82a75.88,75.88,0,0,0-107.29,0c-29.63,29.63-26.59,76.57,3,106.2s74.63,30.72,104.26,1.1a75.87,75.87,0,0,0,0-107.3Zm0,0"/><path class="cls-4" d="M239.75,219.45c-1.09,1.25-2.24,2.47-3.43,3.66A75.87,75.87,0,0,1,129,115.82c1.19-1.19,2.42-2.33,3.66-3.42a75.86,75.86,0,0,0,107.06,107Zm0,0"/><path class="cls-5" d="M223.82,128.32a58.19,58.19,0,0,0-82.29,0c-22.72,22.73-20.13,56.8,2.59,79.53s57,25.49,79.7,2.76a58.18,58.18,0,0,0,0-82.29Zm0,0"/><path class="cls-2" d="M227.48,206.6q-1.71,2.07-3.66,4a58.19,58.19,0,0,1-82.29-82.29q1.93-1.93,4-3.66a58.19,58.19,0,0,0,81.93,81.94Zm0,0"/><path class="cls-5" d="M192.49,312.08a30.06,30.06,0,0,1-23.85-1.86l-22.67-12A152.61,152.61,0,0,1,64.84,163.39V105.3a11.3,11.3,0,0,1,9.52-11.2v69.29A142.77,142.77,0,0,0,150.43,289.8l22.67,12c1.18.63,9.55,5.11,19.39,10.27Zm0,0"/><path class="cls-5" d="M195.28,291.22l-6.4,3.39a13.21,13.21,0,0,1-12.37,0l-20.58-10.9A139.29,139.29,0,0,1,81.88,160.64V113a2.85,2.85,0,0,1,2.59-2.83,38,38,0,0,0,8.61-1.93v52.39a127.79,127.79,0,0,0,68.09,113.17l20.58,10.91c.14.07,6.72,3.24,13.53,6.5Zm0,0"/><path d="M291.56,89.93c-24.44-3.63-42.84-22.69-45.78-47.43A12.71,12.71,0,0,0,233.2,31.25h-101A12.71,12.71,0,0,0,119.57,42.5a55.19,55.19,0,0,1-11.35,27.72,4.2,4.2,0,0,0,6.6,5.2A63.65,63.65,0,0,0,127.91,43.5a4.32,4.32,0,0,1,4.24-3.86h101a4.32,4.32,0,0,1,4.24,3.86C240.84,72,262.09,94,290.32,98.24a7.14,7.14,0,0,1,6,7.06v58.1a148.06,148.06,0,0,1-78.88,131.1l-22.65,12a25.78,25.78,0,0,1-24.17,0l-22.67-12A148.08,148.08,0,0,1,69,163.38V105.3a7.14,7.14,0,0,1,6-7.06A62.66,62.66,0,0,0,99.22,89.4a4.2,4.2,0,1,0-4.45-7.12,54.45,54.45,0,0,1-21,7.65A15.59,15.59,0,0,0,60.65,105.3v58.08A156.75,156.75,0,0,0,144,301.92l22.67,12a34.14,34.14,0,0,0,32,0l22.65-12A156.81,156.81,0,0,0,304.71,163.4V105.3a15.6,15.6,0,0,0-13.15-15.37Zm0,0"/><path d="M258.68,240.28a4.19,4.19,0,0,0,5.81-1.23,142.5,142.5,0,0,0,23.18-78V113a7,7,0,0,0-6.4-7c-20.36-1.92-49.38-27.35-51.17-50.71a7.06,7.06,0,0,0-7-6.48H141.33a7,7,0,0,0-7,6.49c-1.75,23.39-30.25,48.8-50.25,50.7a7,7,0,0,0-6.39,7v47.64A143.17,143.17,0,0,0,154,287.42l20.58,10.9a17.4,17.4,0,0,0,16.31,0l20.91-11.08A142.36,142.36,0,0,0,252.45,255a4.2,4.2,0,1,0-6.32-5.53,133.93,133.93,0,0,1-38.31,30.37l-20.9,11.08a9,9,0,0,1-8.44,0L157.9,280A134.78,134.78,0,0,1,86.08,160.65V114.23c11.26-1.47,24.48-8.61,35.63-19.29,12-11.44,19.51-25.12,20.87-37.73h79.27C223.24,69.81,231,83.5,243.19,95c11.36,10.67,24.75,17.79,36.08,19.26v46.83a134.14,134.14,0,0,1-21.81,73.41,4.2,4.2,0,0,0,1.22,5.81Zm0,0"/><path d="M251.42,137.14a4.2,4.2,0,0,0,1.7-5.69,80.07,80.07,0,0,0-125.71-19.8,79.93,79.93,0,0,0,55.24,137.78c50.53-.13,86.7-45.32,79-92.87a4.2,4.2,0,1,0-8.29,1.34c7.24,45.74-28.9,83.35-70.71,83.14a71.56,71.56,0,1,1,63.08-105.6,4.2,4.2,0,0,0,5.69,1.7Zm0,0"/><path d="M142.83,207.58a4.2,4.2,0,1,0-6.09,5.79,63.91,63.91,0,0,0,45.92,19.69c28,.42,55.27-20.28,61.62-48.11C257.45,128.62,197.91,87,150,115.2a63.38,63.38,0,0,0-28.1,72.67,4.2,4.2,0,0,0,8-2.42,55,55,0,0,1,24.39-63c44.12-25.59,93.18,14.84,81.78,60.52a54.68,54.68,0,0,1-25.07,33.87,55.38,55.38,0,0,1-68.23-9.21Zm0,0"/><polyline class="cls-6" points="144.91 172.54 166.79 196.82 216.27 140.8"/></svg>