<svg id="Layer_1" data-name="Layer 1" xmlns="http://www.w3.org/2000/svg" xmlns:xlink="http://www.w3.org/1999/xlink" viewBox="0 0 360 360"><defs><style>.cls-1{fill:none;}.cls-2{fill:#936037;}.cls-3{fill:#b17f4a;}.cls-4{clip-path:url(#clip-path);}.cls-5{fill:#f4b84a;}.cls-6{fill:#1d1d1b;}.cls-7{fill:#f9c662;}</style><clipPath id="clip-path"><rect class="cls-1" x="47.87" y="49.2" width="258.11" height="258.11"/></clipPath></defs><title>icon mengapa kami</title><ellipse class="cls-2" cx="130.08" cy="224.49" rx="83.28" ry="66.97" transform="translate(-123.24 168.41) rotate(-47.43)"/><ellipse class="cls-3" cx="228.85" cy="130.62" rx="71.23" ry="79.3" transform="translate(-22.16 210.79) rotate(-47.43)"/><g class="cls-4"><path d="M292.86,95.41C281.44,75.63,264.09,60.81,244,53.69,223.61,46.47,202.86,48,185.56,58s-29,27.19-32.92,48.45A89.46,89.46,0,0,0,155.05,148,79.87,79.87,0,0,0,119,149.32a95.69,95.69,0,0,0-43.22,25.14c-16.15,16.15-26,36.75-27.65,58-1.7,21.56,5.14,41.2,19.27,55.33,11.7,11.71,27.15,18.42,44.65,19.39,1.42.08,2.84.12,4.27.12a89.22,89.22,0,0,0,45.61-13.14,5,5,0,1,0-5.21-8.62c-27.67,16.72-60.5,15.22-80.67-3.43A52.31,52.31,0,0,1,128.25,232,61.75,61.75,0,0,0,165.8,219.4,62.92,62.92,0,0,0,185.21,195a90.42,90.42,0,0,0,12.39,9c2.86,16.72-1,35.34-10.74,51.46a5,5,0,0,0,8.62,5.21c9.62-15.9,14.13-34.07,12.93-51.15,1.58.67,3.17,1.3,4.79,1.87a75.64,75.64,0,0,0,25.34,4.5,65.79,65.79,0,0,0,33.09-8.78c17.3-10,29-27.2,32.93-48.46,3.88-21-.28-43.4-11.7-63.18ZM128.25,221.89a62.44,62.44,0,0,0-61,49.69c-16.52-25.69-10.61-63.68,15.7-90,21.49-21.49,51.2-30,76.32-22.08a104,104,0,0,0,5.1,10.11A99.9,99.9,0,0,0,177.4,187.4a52.62,52.62,0,0,1-49.15,34.49Zm88.32-20.06c-17.84-6.32-33.29-19.55-43.51-37.26C152.53,129,159.69,86.14,188.8,67.8a52.32,52.32,0,0,1,34.93,63.41A62.38,62.38,0,0,0,255.92,203c-12.25,3.93-25.86,3.57-39.35-1.21Zm51.82-4.61a52.25,52.25,0,0,1-34.92-63.4A62.45,62.45,0,0,0,201.27,62c29.09-9.3,64.26,6.23,82.86,38.46,20.53,35.56,13.38,78.43-15.74,96.77Zm0,0"/></g><path d="M177.16,270.8a5,5,0,1,0,3.57,1.48,5.06,5.06,0,0,0-3.57-1.48Zm0,0"/><path class="cls-5" d="M147.45,112.38c-13.92,4.74-21,14.38-27.12,26.6C116,125.46,107,117.7,94,112.21,107.5,107.5,115.67,99,120.66,85.82,126.2,98.55,133.67,107.77,147.45,112.38Z"/><path class="cls-6" d="M120.33,141h-.15a2,2,0,0,1-1.75-1.38c-3.86-11.94-11.62-19.82-25.17-25.55a2,2,0,0,1,.12-3.73c12.64-4.42,20.48-12.2,25.41-25.21a2,2,0,0,1,1.83-1.29A2,2,0,0,1,122.5,85c6,13.87,13.68,21.48,25.59,25.46a2,2,0,0,1,0,3.79c-13.18,4.49-19.92,13.48-26,25.61A2,2,0,0,1,120.33,141ZM99.11,112.34c10.58,5.29,17.42,12.2,21.52,21.75,4.72-8.6,10.9-16.72,21.43-21.69-9.19-4.21-16-11.11-21.3-21.67C116,100.88,109,107.88,99.11,112.34Z"/><path class="cls-5" d="M258.77,249.41c-13.92,4.74-21,14.38-27.12,26.6-4.38-13.52-13.31-21.28-26.29-26.77C218.81,244.53,227,236,232,222.85,237.51,235.58,245,244.8,258.77,249.41Z"/><path class="cls-6" d="M231.65,278h-.16a2,2,0,0,1-1.75-1.38c-3.86-11.94-11.62-19.82-25.16-25.55a2,2,0,0,1,.12-3.73c12.64-4.42,20.48-12.2,25.41-25.21a2,2,0,0,1,3.7-.09c6,13.87,13.68,21.48,25.59,25.46a2,2,0,0,1,0,3.79c-13.17,4.49-19.91,13.48-26,25.61A2,2,0,0,1,231.65,278Zm-21.22-28.64c10.57,5.29,17.41,12.2,21.52,21.75,4.72-8.6,10.9-16.72,21.43-21.69-9.19-4.21-16-11.11-21.3-21.67C227.32,237.91,220.31,244.91,210.43,249.37Z"/><path class="cls-7" d="M287.08,227.64c-7,2.38-10.51,7.2-13.57,13.31-2.18-6.77-6.65-10.65-13.14-13.39,6.73-2.36,10.82-6.61,13.31-13.2C276.45,220.73,280.19,225.34,287.08,227.64Z"/><path class="cls-6" d="M273.52,242.45h-.12a1.48,1.48,0,0,1-1.31-1c-1.88-5.82-5.68-9.67-12.3-12.47a1.49,1.49,0,0,1-.92-1.43,1.51,1.51,0,0,1,1-1.37c6.17-2.16,10-5.95,12.4-12.31a1.52,1.52,0,0,1,1.37-1,1.49,1.49,0,0,1,1.41.91c2.95,6.79,6.69,10.51,12.49,12.45a1.5,1.5,0,0,1,0,2.84c-6.43,2.19-9.73,6.61-12.7,12.56A1.51,1.51,0,0,1,273.52,242.45ZM264,227.64a21.44,21.44,0,0,1,9.68,9.76,24,24,0,0,1,9.54-9.74,22.2,22.2,0,0,1-9.5-9.73A21.31,21.31,0,0,1,264,227.64Z"/><path class="cls-7" d="M107.39,140.79c-7,2.37-10.5,7.19-13.56,13.3-2.19-6.76-6.65-10.64-13.14-13.39,6.73-2.35,10.81-6.61,13.31-13.19C96.76,133.87,100.5,138.48,107.39,140.79Z"/><path class="cls-6" d="M93.83,155.59h-.11a1.52,1.52,0,0,1-1.32-1c-1.88-5.82-5.67-9.66-12.3-12.47a1.5,1.5,0,0,1-.91-1.43,1.47,1.47,0,0,1,1-1.36c6.17-2.16,10-6,12.41-12.31a1.49,1.49,0,0,1,2.77-.07c3,6.79,6.69,10.51,12.5,12.45a1.51,1.51,0,0,1,0,2.85c-6.43,2.19-9.73,6.6-12.71,12.55A1.49,1.49,0,0,1,93.83,155.59Zm-9.48-14.8A21.47,21.47,0,0,1,94,150.54a24,24,0,0,1,9.53-9.73,22.27,22.27,0,0,1-9.5-9.74A21.31,21.31,0,0,1,84.35,140.79Z"/></svg>