<svg id="Layer_1" data-name="Layer 1" xmlns="http://www.w3.org/2000/svg" viewBox="0 0 360 360"><defs><style>.cls-1{fill:#f9c662;}.cls-2{fill:#da9829;}.cls-3{fill:#b5d69e;}.cls-4{fill:#fff;}.cls-5{fill:#faccc0;}.cls-6{fill:#74b95a;}.cls-7{fill:#f6afa0;}.cls-8{fill:#695f69;}.cls-9{fill:#f2ebe2;}.cls-10{fill:#cac0c9;}</style></defs><title>icon mengapa kami</title><path class="cls-1" d="M38,108.54a41.66,41.66,0,1,1,69,31.39,1.81,1.81,0,0,0,.27,2.92l7.85,4.64a1.45,1.45,0,0,1-.74,2.7H78.83A41.66,41.66,0,0,1,38,108.54Zm0,0"/><path class="cls-2" d="M115.11,147.49l-7.85-4.64a1.81,1.81,0,0,1-.28-2.91A41.67,41.67,0,0,0,71.71,67.63a41.65,41.65,0,0,1,25.08,66.46,9,9,0,0,0,2.43,13.3l.17.1a1.45,1.45,0,0,1-.7,2.69h15.68a1.45,1.45,0,0,0,.74-2.7Zm0,0"/><path class="cls-3" d="M240.92,218.07H146.43c-23.6,0-36.52-27.5-21.44-45.66l.83-1a44.52,44.52,0,0,0,10.28-28.47V124.71a57.83,57.83,0,1,1,115.66,0v18.84a44.62,44.62,0,0,0,10.47,28.71c15.27,18.12,2.39,45.81-21.31,45.81Zm0,0"/><path class="cls-4" d="M290.59,264.9v62.47H96.76v-62a34.89,34.89,0,0,1,21.35-32.15l31.28-13.6L159.93,215A21.89,21.89,0,0,0,173.1,195v-4h41.15v3.83a21.89,21.89,0,0,0,13.27,20.12L269.84,233a34.87,34.87,0,0,1,20.75,31.89Zm0,0"/><path class="cls-5" d="M149.39,234.51a149.9,149.9,0,0,0,88.57-.83l5.1-12.15-15.54-6.66a21.89,21.89,0,0,1-13.27-20.12v-3.83H173.1v4A21.89,21.89,0,0,1,159.93,215l-12.58,5.47Zm0,0"/><path class="cls-6" d="M269.84,233,238,219.35h0v108h52.63V264.9A34.87,34.87,0,0,0,269.84,233Zm0,0"/><path class="cls-6" d="M149.39,219.62V327.37H96.76v-62a34.89,34.89,0,0,1,21.35-32.15Zm0,0"/><path class="cls-4" d="M205.37,182.53h-9.22a7.59,7.59,0,0,1,0-15.18h9.22a7.59,7.59,0,0,1,0,15.18Zm0,0"/><path d="M196.15,171.28a3.66,3.66,0,1,0,0,7.32h9.22a3.66,3.66,0,0,0,0-7.32Zm0,0"/><path d="M197.47,262.5a3.8,3.8,0,1,1-3.79-3.79,3.8,3.8,0,0,1,3.79,3.79Zm0,0"/><path class="cls-7" d="M207.94,213.51a34.7,34.7,0,0,0,13.36-2.67,21.9,21.9,0,0,1-7.05-16.09v-3.83H173.1v4a21.82,21.82,0,0,1-1.92,8.95,34.6,34.6,0,0,0,23.95,9.6Zm0,0"/><path class="cls-5" d="M234.81,129v34a34.73,34.73,0,0,1-34.73,34.73H187.27a34.73,34.73,0,0,1-34.73-34.73V129a22.6,22.6,0,0,1,22.59-22.6h37.09A22.6,22.6,0,0,1,234.81,129Zm0,0"/><path class="cls-8" d="M205.37,182.53h-9.22a7.59,7.59,0,0,1,0-15.18h9.22a7.59,7.59,0,0,1,0,15.18Zm0,0"/><path class="cls-3" d="M201.88,97.4c.88-11.12,11.54-18.51,21.73-22.33a57.81,57.81,0,0,1,28.15,49.64v4c-.94.2-1.86.37-2.78.51a46.94,46.94,0,0,1-13.66,0c-21.06-2.8-34.5-18.35-33.44-31.79Zm0,0"/><path class="cls-3" d="M193.93,66.88a57.58,57.58,0,0,1,34.79,11.63A103.13,103.13,0,0,1,192,115.83a102.45,102.45,0,0,1-39,13.36h-17v-4.48a57.83,57.83,0,0,1,57.83-57.83Zm0,0"/><path class="cls-4" d="M258.57,327.37H132.74L125.8,261.9a7.86,7.86,0,0,1,7.81-8.69H257.7a7.86,7.86,0,0,1,7.81,8.69Zm0,0"/><path class="cls-9" d="M257.7,253.21H242a7.86,7.86,0,0,1,7.82,8.69l-6.94,65.47h15.72l6.94-65.47a7.85,7.85,0,0,0-7.81-8.69Zm0,0"/><path class="cls-10" d="M298.45,331.3H38a3.93,3.93,0,1,1,0-7.86H298.45a3.93,3.93,0,0,1,0,7.86Zm0,0"/><path class="cls-6" d="M206.66,290.29a11,11,0,1,1-11-11,11,11,0,0,1,11,11Zm0,0"/><path d="M95.34,112.46a3.93,3.93,0,1,0-3.93-3.93,3.92,3.92,0,0,0,3.93,3.93Zm-31.44,0A3.93,3.93,0,1,0,60,108.53a3.92,3.92,0,0,0,3.94,3.93Zm15.72,0a3.93,3.93,0,1,0-3.93-3.93,3.92,3.92,0,0,0,3.93,3.93Zm-.86,41.65h35.61a5.38,5.38,0,0,0,2.74-10l-5.4-3.2A45.58,45.58,0,1,0,34,108.54c0,24.27,20,45,44.73,45.57ZM53.14,81.67a37.45,37.45,0,0,1,27-10.86A37.72,37.72,0,0,1,104.41,137a5.73,5.73,0,0,0,.85,9.27l0,0H78.87A37.72,37.72,0,0,1,53.14,81.67ZM298.45,323.44h-3.93V264.9a38.84,38.84,0,0,0-23.13-35.5l-20.72-8.88a31,31,0,0,0,13.3-8.36,32.53,32.53,0,0,0,8.8-22.1,31.27,31.27,0,0,0-7.53-20.34,40.68,40.68,0,0,1-9.55-26.17V124.71a61.76,61.76,0,1,0-123.52,0v18.22a42.52,42.52,0,0,1-10.21,27,31.83,31.83,0,0,0,15.2,50.75l-20.57,8.95a38.72,38.72,0,0,0-23.76,35.77v46.28a3.93,3.93,0,1,0,7.86,0V265.37a30.89,30.89,0,0,1,19-28.54l25.78-11.22v23.67H133.62a11.78,11.78,0,0,0-11.73,13l6.48,61.13H38a3.93,3.93,0,1,0,0,7.86H298.45a3.93,3.93,0,0,0,0-7.86ZM259.23,174.79a23.52,23.52,0,0,1,5.68,15.27,24.64,24.64,0,0,1-6.66,16.71,23.5,23.5,0,0,1-17.33,7.37H235.8l-6.73-2.88a17.94,17.94,0,0,1-10.72-14.15,38.68,38.68,0,0,0,20.39-34.06V133.5q1.72.12,3.45.12a50.5,50.5,0,0,0,5.64-.32v10.25a48.59,48.59,0,0,0,11.4,31.24Zm-64.35,62.05a145.45,145.45,0,0,1-41.56-5.29V222.2l1.14-.5h0l7-3.05a25.81,25.81,0,0,0,15-18.47,38.3,38.3,0,0,0,10.77,1.54h12.81a38.66,38.66,0,0,0,10.82-1.55A25.78,25.78,0,0,0,226,218.49l7.49,3.2h0l.56.24v8.84a146,146,0,0,1-39.15,6.06ZM234,239v10.31H153.32v-9.59a153.31,153.31,0,0,0,39,5q1.35,0,2.7,0A154.14,154.14,0,0,0,234,239Zm13.8-113.59c-10.83,1.46-23-1.44-31.44-8a3.93,3.93,0,0,0-4.82,6.22,47.46,47.46,0,0,0,19.31,8.77v21.4a28.71,28.71,0,0,1-8.73,11.79,30.35,30.35,0,0,1-6.52,4.11,11.53,11.53,0,0,0-10.26-6.29h-9.22a11.52,11.52,0,1,0,0,23h9.22a11.55,11.55,0,0,0,11.15-8.6c5.25-2,13.83-9.16,13.83-9.16a30.85,30.85,0,0,1-30.27,25.15H187.27a30.84,30.84,0,0,1-30.8-30.8V132.66A105.2,105.2,0,0,0,194,119.21a106.85,106.85,0,0,0,35.72-34.78,53.87,53.87,0,0,1,18.1,40.95ZM209,175a3.67,3.67,0,0,1-3.66,3.65h-9.22a3.66,3.66,0,1,1,0-7.32h9.22a3.67,3.67,0,0,1,3.66,3.65Zm-69-50.24a53.91,53.91,0,0,1,83.44-45.09A98.86,98.86,0,0,1,190,112.45a97.74,97.74,0,0,1-37.21,12.81H140Zm-15.27,75.67A23.73,23.73,0,0,1,128,174.92a50.22,50.22,0,0,0,12-32v-9.81h8.58v29.93A38.71,38.71,0,0,0,169,197.13a18,18,0,0,1-10.66,14.3l-6.24,2.71h-5.7a23.73,23.73,0,0,1-21.67-13.76Zm136.84,61.1-6.56,62H136.27l-6.56-62a3.92,3.92,0,0,1,3.9-4.34H257.7a3.92,3.92,0,0,1,3.9,4.34Zm25.06,62H262.94l6.48-61.13a11.78,11.78,0,0,0-11.72-13H241.88V233.74a.33.33,0,0,0,0-.14v-8.29l26.37,11.3a31,31,0,0,1,18.41,28.29Zm-91-48.09a14.94,14.94,0,1,0,14.94,14.94,15,15,0,0,0-14.94-14.94Zm0,22a7.08,7.08,0,1,1,7.08-7.07,7.08,7.08,0,0,1-7.08,7.07Zm0,0"/></svg>