<svg id="Layer_1" data-name="Layer 1" xmlns="http://www.w3.org/2000/svg" viewBox="0 0 360 360"><defs><style>.cls-1{fill:#f4b84a;}.cls-2{fill:#fed48a;}.cls-3{fill:#f9c662;}.cls-4{fill:#010101;}.cls-5{fill:#da9829;stroke:#1d1d1b;stroke-linecap:round;stroke-linejoin:round;stroke-width:4px;}</style></defs><title>icon mengapa kami</title><circle class="cls-1" cx="202.05" cy="157.97" r="96.73"/><path class="cls-2" d="M279.81,158a77.76,77.76,0,1,1-82.9-77.59c1.69-.11,3.41-.16,5.14-.16A77.44,77.44,0,0,1,244,92.48a77.57,77.57,0,0,1,18.66,16.75A77.38,77.38,0,0,1,279.81,158Z"/><path class="cls-3" d="M262.63,109.23,153.3,218.56l-22.49,22.49a119.1,119.1,0,0,1-10.06-25.35L244,92.48a77.57,77.57,0,0,1,18.66,16.75Z"/><path class="cls-3" d="M218.15,81.89l-85.67,85.67A77.39,77.39,0,0,1,126,151.27l70.9-70.89c1.69-.11,3.41-.16,5.14-.16A77.61,77.61,0,0,1,218.15,81.89Z"/><path class="cls-1" d="M226.39,270.42a96.64,96.64,0,0,1-131.14,5.23c-1.94-1.65-3.82-3.4-5.65-5.23A96.73,96.73,0,0,1,226.39,133.63q2.76,2.75,5.23,5.65a96.64,96.64,0,0,1-5.23,131.14Z"/><path class="cls-3" d="M246.45,162.82,118.79,290.48a96.11,96.11,0,0,1-23.54-14.83L231.62,139.28A96.22,96.22,0,0,1,246.45,162.82Z"/><path class="cls-2" d="M235.75,202a77.76,77.76,0,1,1-28.47-60.14A77.75,77.75,0,0,1,235.75,202Z"/><path class="cls-3" d="M207.28,141.89,97.86,251.31h0A77.75,77.75,0,0,1,207.28,141.89Z"/><path class="cls-2" d="M194.63,133.43,89.39,238.66a77.28,77.28,0,0,1-6.46-16.28L178.35,127A77.53,77.53,0,0,1,194.63,133.43Z"/><path class="cls-4" d="M158,101.64a99.74,99.74,0,0,0-71,29.41,3.66,3.66,0,0,0,5.17,5.17,92.74,92.74,0,1,1-11.64,14.16,3.65,3.65,0,1,0-6.07-4.06A100.39,100.39,0,1,0,158,101.64Z"/><path class="cls-4" d="M100.43,259.59a81.41,81.41,0,1,0,0-115.13A81.13,81.13,0,0,0,100.43,259.59Zm5.17-110a74.1,74.1,0,1,1,0,104.79A73.84,73.84,0,0,1,105.6,149.63Z"/><path class="cls-4" d="M273,87a100.49,100.49,0,0,0-142,0,99,99,0,0,0-6.76,7.47A3.65,3.65,0,0,0,130,99.09c2-2.39,4.07-4.72,6.28-6.93A93.07,93.07,0,0,1,267.86,223.78c-2.21,2.21-4.54,4.32-6.93,6.28a3.66,3.66,0,0,0,4.63,5.66c2.58-2.11,5.09-4.39,7.47-6.77A100.49,100.49,0,0,0,273,87Z"/><path class="cls-4" d="M265.66,202.86a3.65,3.65,0,0,0,5-1.11,81.44,81.44,0,0,0,9.59-66.29,3.66,3.66,0,0,0-7,2,74.08,74.08,0,0,1-8.72,60.33A3.66,3.66,0,0,0,265.66,202.86Z"/><path class="cls-4" d="M259.61,100.41a81.4,81.4,0,0,0-101.32-11.1,3.65,3.65,0,1,0,3.93,6.16A74.21,74.21,0,0,1,267.93,124a3.66,3.66,0,0,0,3.25,2,3.58,3.58,0,0,0,1.67-.41,3.65,3.65,0,0,0,1.57-4.93A81,81,0,0,0,259.61,100.41Z"/><path class="cls-5" d="M191.7,208.57c18.52-24.37,4.66-37.87,4.66-37.87-12.31-14.23-24.74-9.81-24.74-9.81a24.26,24.26,0,0,0-5.26-3.58c-3.82-1.67-8.36,3.47-8.36,3.47-6,6-10.88,8-10.88,8-22.82,9.32-30.82,20.8-30.82,20.8-10.4,14.21,2.87,20.67,2.87,20.67-5.62,14.34-.61,22.7-.61,22.7,6.82,14.94,25.94,9.68,25.94,9.68C173.42,235.22,191.7,208.57,191.7,208.57Zm-71.46-.35c-7.88-1.92-.84-11.84-.84-11.84,8.61-11.11,16.73-13,16.73-13A122.87,122.87,0,0,0,120.24,208.22Zm17.81,22.1s-9.09,4.66-12,.6c0,0-3-3.1,3.11-15.65a3.88,3.88,0,0,1,3.7-2.51s13.74.47,22.11-6.34c0,0-11.72,4.43-21,4.43,0,0-2.51.59-1-2.16,0,0,12.08-21,32.87-35.37a16.64,16.64,0,0,1,14.46-2.86s12.18,2.74,2.86,18.28C183.21,188.74,169.23,214.91,138.05,230.32Z"/></svg>