<svg id="Layer_1" data-name="Layer 1" xmlns="http://www.w3.org/2000/svg" viewBox="0 0 360 360"><defs><style>.cls-1{fill:#9e9e9e;}.cls-2{fill:#f4b84a;}.cls-3{fill:#707070;}.cls-4{fill:#cecece;}.cls-5{fill:#74b95a;}.cls-6{fill:#b6d7a3;}.cls-7{fill:#f8b026;}.cls-8{fill:#ee712b;}.cls-9{fill:#fff;}.cls-10{fill:#f2ebe2;}.cls-11{fill:#40367a;}</style></defs><title>icon mengapa kami</title><rect class="cls-1" x="190.64" y="128.37" width="25.89" height="8.91"/><path class="cls-2" d="M262.85,135.87a8.11,8.11,0,1,1-8.11-8.11,8.11,8.11,0,0,1,8.11,8.11Zm0,0"/><path class="cls-1" d="M166,259.18a32.05,32.05,0,1,1-32.05-32.05A32.05,32.05,0,0,1,166,259.18Zm0,0"/><path class="cls-3" d="M114.94,259.18a32.05,32.05,0,0,1,25.52-31.38,32.05,32.05,0,1,0-6.52,63.43,32.55,32.55,0,0,0,6.52-.66,32.06,32.06,0,0,1-25.52-31.39Zm0,0"/><path class="cls-3" d="M151.88,259.18a17.95,17.95,0,1,1-17.94-17.94,17.95,17.95,0,0,1,17.94,17.94Zm0,0"/><path class="cls-1" d="M304.63,259.18a32.05,32.05,0,1,1-32.05-32.05,32.05,32.05,0,0,1,32.05,32.05Zm0,0"/><path class="cls-4" d="M272.58,227.13a31.93,31.93,0,0,0-6.53.67,32.06,32.06,0,0,1,0,62.77,32.65,32.65,0,0,0,6.53.66,32.05,32.05,0,0,0,0-64.1Zm0,0"/><path class="cls-3" d="M290.53,259.18a18,18,0,1,1-17.95-17.94,18,18,0,0,1,17.95,17.94Zm0,0"/><path class="cls-5" d="M102.78,198.49h77.64l7,26.06a19.88,19.88,0,0,0,19.2,14.71h13.57a16.17,16.17,0,0,0,15.16-10.58l1.08-2.94a30.42,30.42,0,0,0,.89-18.13L221.65,147h21.52l21.52,68.46a33.67,33.67,0,0,1-32.13,43.76H98.66a17.16,17.16,0,0,1-15.08-25.35Zm0,0"/><path class="cls-6" d="M264.69,215.42,243.17,147h-13l21.51,68.45a33.66,33.66,0,0,1-32.12,43.76h13.05a33.67,33.67,0,0,0,32.13-43.76Zm0,0"/><path class="cls-6" d="M96.63,233.84l19.21-35.35H102.78l-19.2,35.35a17.15,17.15,0,0,0,15.08,25.34h13a17.15,17.15,0,0,1-15.07-25.34Zm0,0"/><path class="cls-1" d="M180.42,198.49H93a1.49,1.49,0,0,1-1.29-2.26l2-3.33a20.57,20.57,0,0,1,17.68-10.06h62a7.12,7.12,0,0,1,7.12,7.12Zm0,0"/><path class="cls-3" d="M104.74,196.23l2-3.33a20.57,20.57,0,0,1,17.69-10.06h-13A20.57,20.57,0,0,0,93.67,192.9l-2,3.33A1.5,1.5,0,0,0,93,198.5h13a1.5,1.5,0,0,1-1.29-2.27Zm0,0"/><path class="cls-6" d="M124.78,217.22a58,58,0,0,0-41.72,17.64,17.17,17.17,0,0,0,15.59,24.33h82a58.2,58.2,0,0,0-55.88-42Zm0,0"/><path class="cls-5" d="M103.21,257c-10-5.7-10.55-20-1.56-27.11a57.84,57.84,0,0,1,29.65-12.26,58.09,58.09,0,0,0-48.24,17.27,17.16,17.16,0,0,0,15.59,24.32h13a17.06,17.06,0,0,1-8.49-2.22Zm0,0"/><path class="cls-5" d="M232.37,259.18a40.21,40.21,0,0,1,80.42,0Zm0,0"/><path class="cls-6" d="M272.58,219a40.24,40.24,0,0,0-6.53.53,40.22,40.22,0,0,1,33.69,39.67h13.05A40.2,40.2,0,0,0,272.58,219Zm0,0"/><path class="cls-5" d="M254.74,147H218a9.31,9.31,0,0,1-9.31-9.31v-3.57a9.31,9.31,0,0,1,9.31-9.3h36.73Zm0,0"/><rect class="cls-6" x="241.65" y="124.78" width="13.09" height="22.19"/><path class="cls-7" d="M153.93,182.84H48.28a5.56,5.56,0,0,1-5.57-5.56V156a5.57,5.57,0,0,1,11.14,0v15.76H153.93a5.57,5.57,0,1,1,0,11.13Zm0,0"/><path class="cls-8" d="M55.76,177.27V171.7H53.85V155.94a5.57,5.57,0,0,0-11.14,0v21.33a5.57,5.57,0,0,0,5.57,5.57h13a5.57,5.57,0,0,1-5.57-5.57Zm0,0"/><rect class="cls-9" x="53.85" y="111.24" width="91.78" height="60.47"/><rect class="cls-10" x="53.85" y="111.24" width="13.05" height="60.47"/><rect class="cls-5" x="124.37" y="111.24" width="9.41" height="60.47"/><rect class="cls-5" x="65.7" y="111.24" width="9.41" height="60.47"/><path class="cls-5" d="M145.44,111.24H54a4.76,4.76,0,0,1-4.75-4.76v-4.72A4.76,4.76,0,0,1,54,97h91.4a4.76,4.76,0,0,1,4.75,4.76v4.72a4.76,4.76,0,0,1-4.75,4.76Zm0,0"/><path class="cls-6" d="M62.33,106.48v-4.72A4.77,4.77,0,0,1,67.1,97H54a4.76,4.76,0,0,0-4.75,4.76v4.72A4.76,4.76,0,0,0,54,111.24H67.1a4.76,4.76,0,0,1-4.77-4.76Zm0,0"/><path d="M91.49,95.14H75.32m-3.73,0H54a6.63,6.63,0,0,0-6.62,6.62v4.72A6.61,6.61,0,0,0,52,112.74v36.77a7.42,7.42,0,0,0-11.14,6.43v21.33a7.44,7.44,0,0,0,7.43,7.44H99A22.23,22.23,0,0,0,92.07,192l-2,3.33A3.36,3.36,0,0,0,93,200.36h6.67L81.94,233a19,19,0,0,0,16.71,28.1h1.43a34,34,0,0,0,18.49,28.32h-69a1.87,1.87,0,0,0,0,3.73H303.08a1.87,1.87,0,0,0,0-3.73H287.94a34,34,0,0,0,18.49-28.32h6.36a1.86,1.86,0,0,0,1.86-1.86,42,42,0,0,0-47.48-41.71c-.21-.88-.44-1.75-.71-2.62l-20.75-66h9A1.86,1.86,0,0,0,256.6,147v-1.31a10,10,0,0,0,0-19.58v-1.3a1.86,1.86,0,0,0-1.86-1.86H218a11.14,11.14,0,0,0-8.19,3.59H190.64a1.86,1.86,0,0,0-1.86,1.86v8.91a1.87,1.87,0,0,0,1.86,1.87H207A11.18,11.18,0,0,0,218,148.83h2.19l15.35,59.25a28.43,28.43,0,0,1-.84,17L233.63,228a14.34,14.34,0,0,1-13.41,9.37H206.65a18.07,18.07,0,0,1-17.41-13.34l-7-25.81V190a9,9,0,0,0-9-9H160.36a7.41,7.41,0,0,0-6.43-11.13h-6.44V112.74a6.61,6.61,0,0,0,4.57-6.26v-4.72a6.63,6.63,0,0,0-6.63-6.62H127.89M256.6,129.92a6.22,6.22,0,0,1,0,11.89Zm-49.76,4.16v1.34H192.5v-5.19h15A11,11,0,0,0,206.84,134.08Zm11.17,11a7.46,7.46,0,0,1-7.45-7.45v-3.57a7.45,7.45,0,0,1,7.45-7.44h34.87V134H215.33a1.86,1.86,0,0,0,0,3.72h37.55v7.37ZM51.15,106.48v-4.72A2.9,2.9,0,0,1,54,98.87h91.4a2.9,2.9,0,0,1,2.89,2.89v4.72a2.9,2.9,0,0,1-2.89,2.9H54A2.9,2.9,0,0,1,51.15,106.48Zm92.62,6.62v56.74h-8.13V113.1Zm-11.85,0v56.74h-5.69V113.1Zm-9.42,0v56.74H77V113.1Zm-49.25,0v56.74H67.56V113.1Zm-9.41,0v56.74H55.71V113.1ZM48.28,181a3.71,3.71,0,0,1-3.71-3.7V155.94a3.71,3.71,0,0,1,7.41,0V171.7a1.87,1.87,0,0,0,1.87,1.87H153.93a3.71,3.71,0,1,1,0,7.41Zm45.34,15.65,1.65-2.78a18.8,18.8,0,0,1,16.08-9.14h62a5.25,5.25,0,0,1,5.12,4.09H138.06a1.87,1.87,0,0,0,0,3.73h40.5v4.1Zm10.27,3.72H179L185.65,225a21.78,21.78,0,0,0,21,16.09h13.57a18.08,18.08,0,0,0,16.91-11.8l1.08-2.94a32.22,32.22,0,0,0,.95-19.23l-15.11-58.33h17.76L262.91,216c.22.71.41,1.43.58,2.14a42.2,42.2,0,0,0-31.55,30.22.19.19,0,0,0,0,.08,41.49,41.49,0,0,0-1.36,8.91H182a60.31,60.31,0,0,0-57.24-42,59.51,59.51,0,0,0-35.27,11.47Zm-5.24,57a15.1,15.1,0,0,1-12.6-6.69h54.2a1.86,1.86,0,1,0,0-3.72H84.18a15.1,15.1,0,0,1,.52-11.07l0,0a55.89,55.89,0,0,1,40.05-16.74,56.59,56.59,0,0,1,53.34,38.24ZM149.91,261A16.07,16.07,0,0,1,118,261Zm-46.1,0h10.43a19.79,19.79,0,0,0,39.4,0h10.42a30.18,30.18,0,0,1-60.25,0Zm45.48,28.33A34.06,34.06,0,0,0,167.79,261h70.93a34,34,0,0,0,18.48,28.33Zm123.29,0A30.29,30.29,0,0,1,242.45,261h10.43A19.91,19.91,0,0,0,272.58,279,19.71,19.71,0,0,0,292.28,261h10.43A30.32,30.32,0,0,1,272.58,289.37Zm-16-28.33h31.94a16,16,0,0,1-16,14.23A16.18,16.18,0,0,1,256.61,261Zm-22.33-3.72a37.83,37.83,0,0,1,.93-6.69h55.32a1.86,1.86,0,1,0,0-3.72H236.26a38.34,38.34,0,0,1,72.64,0h-6.57a1.86,1.86,0,1,0,0,3.72H310a37.83,37.83,0,0,1,.93,6.69Z"/><path class="cls-11" d="M160.33,246.91h-8.28a1.86,1.86,0,0,0,0,3.72h8.28a1.86,1.86,0,0,0,0-3.72Zm0,0"/><path class="cls-11" d="M26.62,293.1h9.86a1.87,1.87,0,1,0,0-3.73H26.62a1.87,1.87,0,0,0,0,3.73Zm0,0"/><path class="cls-11" d="M316.19,293.1h9.86a1.87,1.87,0,0,0,0-3.73h-9.86a1.87,1.87,0,1,0,0,3.73Zm0,0"/><path class="cls-5" d="M108.61,144.5l-.1-.12h.61l-.32-.1s.26-.1,0-.18l-1.32-.21,2.72-.06h-19l.68.05s-1.18.16-.12.42l-.3.07,1.39.31s.54.14-.31.14c0,0,1,.15.52.28,0,0,.31.1-.15.15,0,0-1.4.09-1.28.52,0,0,.1.21.65.39,0,0,.56.2.22.35l1.11,0v.07H94l-.85.12.35.06-3,.24H109s.08-.1-.45-.25c0,0-.46-.11-.39-.26l.81,0s.75,0,.4-.19c0,0-.06,0,.05-.12s.16-.1-.14-.16c0,0-.22,0,.09-.1,0,0,.56-.06.41-.15l-.23,0s-.35-.07.14-.07c0,0,.52,0,.52-.05s0,0-.2,0l.05-.07-1.64,0a.34.34,0,0,1,.22-.09l1,0,.06-.07-.82-.06.56-.08-.52,0,.73-.21-.12-.06.71-.21Zm-12.07,1.7a1,1,0,0,0,.46-.09l0,.22a1.34,1.34,0,0,1-.57.11,1,1,0,0,1-1.06-1.09,1.07,1.07,0,0,1,1.13-1.13,1.17,1.17,0,0,1,.51.09l-.07.23a1,1,0,0,0-.43-.09.8.8,0,0,0-.84.89A.77.77,0,0,0,96.54,146.2Zm1.64.24a1,1,0,0,1-1-1.1,1,1,0,0,1,1-1.13,1,1,0,0,1,1,1.09A1,1,0,0,1,98.18,146.44Zm2.51-2h-.88v.72h.81v.23h-.81v1h-.28v-2.15h1.16Zm1.55,0h-.87v.72h.81v.23h-.81v1h-.29v-2.15h1.16Zm1.61,1.92h-1.21v-2.15h1.16v.23h-.88v.68h.83v.23h-.83v.78h.93Zm1.57,0h-1.21v-2.15h1.16v.23h-.88v.68h.83v.23h-.83v.78h.93Z"/><path class="cls-5" d="M98.19,144.44c-.46,0-.69.43-.69.9s.25.87.69.87.69-.41.69-.89S98.66,144.44,98.19,144.44Z"/><polygon class="cls-5" points="116.72 136.74 116.9 136.74 116.9 135.48 117.34 135.48 117.34 135.32 116.29 135.32 116.29 135.48 116.72 135.48 116.72 136.74"/><path class="cls-5" d="M118.82,135.32h-.24l-.25.69c-.06.18-.11.33-.15.48h0A3.59,3.59,0,0,0,118,136l-.24-.69h-.23l-.1,1.42h.17l0-.61c0-.21,0-.45,0-.62h0c0,.17.1.35.16.55l.23.67h.14l.25-.68.18-.54h0c0,.17,0,.41,0,.61l0,.62h.18Z"/><path class="cls-5" d="M94.84,137.53a.56.56,0,0,0,.47.26H96a11.57,11.57,0,0,0-1.92,3.12s-.55,1.54.75,2.13c0,0,.73.56,2.09-.44a15.26,15.26,0,0,0,2.35-2.35s.15-.37-.18-.18c0,0-2.49,2.4-3.35,2.53,0,0-.5.07-.24-.65a18,18,0,0,1,2.3-4.11H98.9s1.39,0,1.51-.44c0,0,.07-.13-.13-.13H98.1c.17-.27.32-.56.47-.84a3,3,0,0,0,.4-1.2,1.06,1.06,0,0,0-.19-.62c-.11-.14-.35-.35-.54-.29s-.2.21,0,.21a9.69,9.69,0,0,1-1.86,2.74H95.11S94.66,137.23,94.84,137.53Z"/><path class="cls-5" d="M105,140s-.09,0-.19,0-2.49,2.4-3.35,2.53c0,0-.5.07-.24-.65a18,18,0,0,1,2.3-4.11h1.12s1.39,0,1.51-.44c0,0,.07-.13-.13-.13H103.8c.17-.27.32-.56.47-.84a3,3,0,0,0,.4-1.2,1.06,1.06,0,0,0-.19-.62c-.11-.14-.35-.35-.54-.29s-.2.21,0,.21a9.69,9.69,0,0,1-1.86,2.74h-1.26s-.45,0-.27.26a.54.54,0,0,0,.47.26h.67a11.57,11.57,0,0,0-1.92,3.12s-.55,1.54.75,2.13c0,0,.73.56,2.09-.44a18.2,18.2,0,0,0,2.11-2l.21-.45A.79.79,0,0,1,105,140Z"/><path class="cls-5" d="M117.93,140.3a26.35,26.35,0,0,1-2.2,1.93s-.56.4-.49-.08a3.3,3.3,0,0,1,.52-1.29l.84-1.55a1.33,1.33,0,0,0-.1-1.35,1,1,0,0,0-1.3-.36,13.77,13.77,0,0,0-2.34,1.93s-.67.66-.6.4a1.14,1.14,0,0,1,.32-.5s1.39-1.58.81-2.42a1.19,1.19,0,0,0-.86-.6s-.1,0-.1.17a.11.11,0,0,0,.11.11s.19,0,0,.24a21.36,21.36,0,0,1-1.69,2.55,13.54,13.54,0,0,1-3.08,2.31s-1.85,1.09-2.15.67c0,0-.27-.22.31-1.5a7.42,7.42,0,0,1,2.22-2.61s.84-.59.84-.13c0,0-.1.82-1.49,1.62,0,0-.58.28-.44.53,0,0,.13.17,1.06-.3,0,0,2-.95,1.6-1.79a4.18,4.18,0,0,0-1.26-1.34s-.56-.45-1.67.5A8.26,8.26,0,0,0,105,140c.06,0,0,.22,0,.22s-.15.21-.24.32h0a1.91,1.91,0,0,0,.39,2.11s1.38,1.62,5.08-2.08c0,0-.86,1.67.2,2.24.17.1.29-.16.35-.28a10.2,10.2,0,0,1,2.48-2.92,13,13,0,0,1,1.26-1.09c.19-.13.75-.5.56,0a5.23,5.23,0,0,1-.82,1.76s-1,1.67.35,2.51c0,0,.76.51,2.1-.84a10.73,10.73,0,0,0,1.35-1.48S118.25,140.18,117.93,140.3Z"/><path class="cls-5" d="M93.41,138.92c2.78-3.66.7-5.69.7-5.69-1.85-2.14-3.72-1.48-3.72-1.48a4.1,4.1,0,0,0-.79-.54c-.58-.25-1.26.53-1.26.53a5.75,5.75,0,0,1-1.64,1.2,10.71,10.71,0,0,0-4.63,3.12c-1.56,2.14.43,3.11.43,3.11a4,4,0,0,0-.09,3.41c1,2.25,3.9,1.46,3.9,1.46C90.66,142.93,93.41,138.92,93.41,138.92Zm-10.75,0c-1.18-.29-.12-1.78-.12-1.78a5.13,5.13,0,0,1,2.51-2A18.46,18.46,0,0,0,82.66,138.87Zm2.68,3.32s-1.36.7-1.8.09c0,0-.44-.47.47-2.35a.59.59,0,0,1,.56-.38,5.76,5.76,0,0,0,3.32-1,11,11,0,0,1-3.16.66s-.38.09-.14-.32a18.39,18.39,0,0,1,4.94-5.32,2.5,2.5,0,0,1,2.17-.43s1.83.41.43,2.75A16.49,16.49,0,0,1,85.34,142.19Z"/></svg>