<svg id="Layer_1" data-name="Layer 1" xmlns="http://www.w3.org/2000/svg" viewBox="0 0 360 360"><defs><style>.cls-1{fill:#b5d69e;}.cls-2{fill:#74b95a;}.cls-3{fill:#fff;}.cls-4{fill:#f2ebe2;}.cls-5{fill:#f4b84a;}.cls-6{fill:#da9829;}.cls-7{fill:#f9c662;}</style></defs><title>icon mengapa kami</title><path class="cls-1" d="M220.7,295.16H111.48a20.41,20.41,0,0,1-20.42-20.41V61.91a20.42,20.42,0,0,1,20.42-20.42H220.7a20.43,20.43,0,0,1,20.42,20.42V274.75a20.42,20.42,0,0,1-20.42,20.41Zm0,0"/><path class="cls-2" d="M220.7,41.49H205.39a20.43,20.43,0,0,1,20.42,20.42V274.75a20.42,20.42,0,0,1-20.42,20.41H220.7a20.42,20.42,0,0,0,20.42-20.41V61.91A20.43,20.43,0,0,0,220.7,41.49Zm0,0"/><path class="cls-3" d="M227.85,61.91V274.75a7.15,7.15,0,0,1-7.15,7.14H111.48a7.15,7.15,0,0,1-7.15-7.14V61.91a7.15,7.15,0,0,1,7.15-7.15h20.46a2.79,2.79,0,0,1,2.64,1.88l2.7,7.84a2.78,2.78,0,0,0,2.63,1.88h52.36a2.79,2.79,0,0,0,2.63-1.88l2.7-7.84a2.78,2.78,0,0,1,2.63-1.88H220.7a7.15,7.15,0,0,1,7.15,7.15Zm0,0"/><path class="cls-4" d="M220.7,54.76H205.39a7.14,7.14,0,0,1,7.14,7.15V274.75a7.14,7.14,0,0,1-7.14,7.14H220.7a7.15,7.15,0,0,0,7.15-7.14V61.91a7.15,7.15,0,0,0-7.15-7.15Zm0,0"/><path class="cls-2" d="M186,249H146.18a10.72,10.72,0,0,1,0-21.44H186A10.72,10.72,0,0,1,186,249Zm0,0"/><path class="cls-5" d="M311.74,204.57h-176a10,10,0,0,1-10-10V92.09a10,10,0,0,1,10-10h176a10,10,0,0,1,10,10V194.55a10,10,0,0,1-10,10Zm0,0"/><path class="cls-6" d="M311.74,82.07H296.43a10,10,0,0,1,10,10V194.55a10,10,0,0,1-10,10h15.31a10,10,0,0,0,10-10V92.09a10,10,0,0,0-10-10Zm0,0"/><path class="cls-3" d="M183.44,128.52H151.8a3.07,3.07,0,0,1-3.06-3.07V105A3.06,3.06,0,0,1,151.8,102h31.64A3.06,3.06,0,0,1,186.5,105v20.41a3.07,3.07,0,0,1-3.06,3.07Zm0,0"/><path class="cls-7" d="M170.68,185.59H125.77V159.05h44.91a13.27,13.27,0,1,1,0,26.54Zm0,0"/><path d="M146.18,223.71c-19.3.8-19.28,28.29,0,29.09H186c19.31-.8,19.29-28.3,0-29.09Zm46.7,14.54a6.9,6.9,0,0,1-6.89,6.89H146.18c-9.14-.38-9.13-13.4,0-13.78H186a6.9,6.9,0,0,1,6.89,6.89Zm0,0"/><path d="M311.74,78.24H292.26a3.83,3.83,0,0,0,0,7.66h19.48a6.2,6.2,0,0,1,6.19,6.19V194.55a6.2,6.2,0,0,1-6.19,6.19h-176a6.19,6.19,0,0,1-6.19-6.19v-5.13h41.08c22.69-.94,22.67-33.26,0-34.19H129.6V92.09a6.19,6.19,0,0,1,6.19-6.19H274.26a3.83,3.83,0,0,0,0-7.66H245V61.91A24.27,24.27,0,0,0,220.7,37.67H111.48A24.27,24.27,0,0,0,87.23,61.91v22a3.83,3.83,0,0,0,7.66,0v-22a16.61,16.61,0,0,1,16.59-16.59H220.7a16.61,16.61,0,0,1,16.59,16.59V78.24h-5.62V61.91a11,11,0,0,0-11-11H200.23A6.63,6.63,0,0,0,194,55.4l-2.45,7.13H140.65l-2.45-7.14a6.63,6.63,0,0,0-6.26-4.45H111.48a11,11,0,0,0-11,11V274.75a11,11,0,0,0,11,11H220.7a11,11,0,0,0,11-11v-12a3.83,3.83,0,0,0-7.65,0v12a3.32,3.32,0,0,1-3.32,3.31H111.48a3.32,3.32,0,0,1-3.32-3.31V61.91a3.32,3.32,0,0,1,3.32-3.32H131.2l2.46,7.14a6.61,6.61,0,0,0,6.25,4.46h52.35a6.62,6.62,0,0,0,6.26-4.46L201,58.59H220.7A3.32,3.32,0,0,1,224,61.91V78.24H135.79a13.87,13.87,0,0,0-13.85,13.85V194.55a13.86,13.86,0,0,0,13.85,13.84H224v36.54a3.83,3.83,0,0,0,7.65,0V208.39h5.62v66.36a16.6,16.6,0,0,1-16.59,16.58H111.48a16.6,16.6,0,0,1-16.59-16.58V102a3.83,3.83,0,0,0-7.66,0V274.75A24.27,24.27,0,0,0,111.48,299H220.7A24.27,24.27,0,0,0,245,274.75V208.39h66.79a13.86,13.86,0,0,0,13.85-13.84V92.09a13.87,13.87,0,0,0-13.85-13.85ZM170.68,162.88c12.53.52,12.52,18.37,0,18.89H129.6V162.88Zm0,0"/><path d="M253,190.66a3.83,3.83,0,0,0,4.94-2.21l1.82-4.79h12.53l1.8,4.78a3.83,3.83,0,0,0,7.16-2.71l-11-29.1a.76.76,0,0,1,0-.11,4.49,4.49,0,0,0-4.16-2.79h0a4.5,4.5,0,0,0-4.16,2.8l0,.09-11.09,29.1a3.83,3.83,0,0,0,2.22,4.94ZM266,167.14l3.35,8.87h-6.72Zm0,0"/><path d="M287.9,173.14l0,13.93a3.82,3.82,0,0,0,3.82,3.84h0a3.82,3.82,0,0,0,3.82-3.82l0-14,8.73-13.41a3.83,3.83,0,1,0-6.41-4.18L291.73,165l-6.22-9.52a3.83,3.83,0,0,0-6.41,4.18Zm0,0"/><path d="M229.08,187.08a3.83,3.83,0,0,0,7.66,0v-9l4.39,0c16.35-.67,16.34-23.65,0-24.32h-8.22a3.86,3.86,0,0,0-3.83,3.84Zm12-25.69a4.51,4.51,0,1,1,0,9h-4.35c0-3.8,0-5.11,0-9Zm0,0"/><path d="M151.8,98.15a6.9,6.9,0,0,0-6.89,6.89v20.41a6.9,6.9,0,0,0,6.89,6.89h31.64a6.9,6.9,0,0,0,6.89-6.89V105a6.9,6.9,0,0,0-6.89-6.89Zm30.88,26.54H152.56V105.8h30.12Zm0,0"/><path d="M215.55,111.2v6.12a3.83,3.83,0,0,0,7.66,0V111.2a3.83,3.83,0,0,0-7.66,0Zm0,0"/><path d="M282.51,121.15a3.82,3.82,0,0,0,3.83-3.83V111.2a3.83,3.83,0,0,0-7.66,0v6.12a3.83,3.83,0,0,0,3.83,3.83Zm0,0"/><path d="M300,117.32V111.2a3.83,3.83,0,0,0-7.66,0v6.12a3.83,3.83,0,0,0,7.66,0Zm0,0"/><path d="M243,117.32V111.2a3.83,3.83,0,0,0-7.66,0v6.12a3.83,3.83,0,0,0,7.66,0Zm0,0"/><path d="M253.65,121.15a3.82,3.82,0,0,0,3.83-3.83V111.2a3.83,3.83,0,0,0-7.65,0v6.12a3.82,3.82,0,0,0,3.82,3.83Zm0,0"/></svg>